<?xml version="1.0" standalone="no"?>
 <!DOCTYPE svg PUBLIC "-//W3C//DTD SVG 1.1//EN" 
 "http://www.w3.org/Graphics/SVG/1.1/DTD/svg11.dtd"> 
<svg xmlns="http://www.w3.org/2000/svg" version="1.1" 
    width="29.7002cm" height="21.0007cm" viewBox="0 0 116930 82680 ">
<title>SVG Picture created as tmp36.sch.svg date 2016/02/23 10:37:58 </title>
  <desc>Picture generated by Eeschema-SVG </desc>
<g style="fill:#000000; fill-opacity:1;stroke:#000000; stroke-opacity:1;
stroke-linecap:round; stroke-linejoin:round; "
 transform="translate(0 0) scale(1 1)">
</g>
<g style="fill:#000000; fill-opacity:0.0; 
stroke:#000000; stroke-width:0; stroke-opacity:1; 
stroke-linecap:round; stroke-linejoin:round;">
</g>
<g style="fill:#000000; fill-opacity:0.0; 
stroke:#000000; stroke-width:100; stroke-opacity:1; 
stroke-linecap:round; stroke-linejoin:round;">
<rect x="45000" y="26000" width="16000" height="25000" rx="0" />
</g>
<g style="fill:#000000; fill-opacity:0.0; 
stroke:#000000; stroke-width:60; stroke-opacity:1; 
stroke-linecap:round; stroke-linejoin:round;">
<path d="M61000 41500
L62500 41500
" />
<path d="M54400 41830
L54380 41810
L54340 41760
L54320 41720
L54300 41660
L54290 41570
L54290 41490
L54300 41400
L54320 41340
L54340 41300
L54380 41240
L54400 41220
" />
<path d="M54560 41680
L54560 41280
L54710 41280
L54750 41300
L54760 41320
L54780 41360
L54780 41410
L54760 41450
L54750 41470
L54710 41490
L54560 41490
" />
<path d="M55180 41640
L55160 41660
L55110 41680
L55070 41680
L55010 41660
L54970 41620
L54960 41590
L54940 41510
L54940 41450
L54960 41380
L54970 41340
L55010 41300
L55070 41280
L55110 41280
L55160 41300
L55180 41320
" />
<path d="M55360 41680
L55360 41280
" />
<path d="M55550 41680
L55550 41280
L55770 41680
L55770 41280
" />
<path d="M55910 41280
L56140 41280
" />
<path d="M56020 41680
L56020 41280
" />
<path d="M56470 41680
L56250 41680
" />
<path d="M56360 41680
L56360 41280
L56320 41340
L56280 41380
L56250 41400
" />
<path d="M56820 41410
L56820 41680
" />
<path d="M56720 41260
L56630 41550
L56870 41550
" />
<path d="M57310 41260
L56970 41780
" />
<path d="M57670 41680
L57540 41490
" />
<path d="M57450 41680
L57450 41280
L57600 41280
L57640 41300
L57650 41320
L57670 41360
L57670 41410
L57650 41450
L57640 41470
L57600 41490
L57450 41490
" />
<path d="M57850 41470
L57980 41470
" />
<path d="M58040 41680
L57850 41680
L57850 41280
L58040 41280
" />
<path d="M58190 41660
L58240 41680
L58340 41680
L58380 41660
L58400 41640
L58410 41600
L58410 41570
L58400 41530
L58380 41510
L58340 41490
L58260 41470
L58220 41450
L58210 41430
L58190 41400
L58190 41360
L58210 41320
L58220 41300
L58260 41280
L58360 41280
L58410 41300
" />
<path d="M58590 41470
L58720 41470
" />
<path d="M58780 41680
L58590 41680
L58590 41280
L58780 41280
" />
<path d="M58890 41280
L59120 41280
" />
<path d="M59000 41680
L59000 41280
" />
<path d="M57350 41210
L59150 41210
" />
<path d="M59210 41830
L59230 41810
L59260 41760
L59280 41720
L59300 41660
L59320 41570
L59320 41490
L59300 41400
L59280 41340
L59260 41300
L59230 41240
L59210 41220
" />
<path d="M59520 41680
L59520 41280
L59670 41280
L59710 41300
L59720 41320
L59740 41360
L59740 41410
L59720 41450
L59710 41470
L59670 41490
L59520 41490
" />
<path d="M60140 41640
L60120 41660
L60070 41680
L60030 41680
L59970 41660
L59930 41620
L59920 41590
L59900 41510
L59900 41450
L59920 41380
L59930 41340
L59970 41300
L60030 41280
L60070 41280
L60120 41300
L60140 41320
" />
<path d="M60490 41280
L60410 41280
L60370 41300
L60350 41320
L60320 41380
L60300 41450
L60300 41600
L60320 41640
L60330 41660
L60370 41680
L60450 41680
L60490 41660
L60510 41640
L60520 41600
L60520 41510
L60510 41470
L60490 41450
L60450 41430
L60370 41430
L60330 41450
L60320 41470
L60300 41510
" />
<path d="M61860 41380
L61640 41380
" />
<path d="M61750 41380
L61750 40980
L61710 41040
L61670 41080
L61640 41100
" />
<path d="M61000 43000
L62500 43000
" />
<path d="M55020 43330
L55000 43310
L54960 43260
L54940 43220
L54920 43160
L54910 43070
L54910 42990
L54920 42900
L54940 42840
L54960 42800
L55000 42740
L55020 42720
" />
<path d="M55180 43180
L55180 42780
L55330 42780
L55370 42800
L55380 42820
L55400 42860
L55400 42910
L55380 42950
L55370 42970
L55330 42990
L55180 42990
" />
<path d="M55800 43140
L55780 43160
L55730 43180
L55690 43180
L55630 43160
L55590 43120
L55580 43090
L55560 43010
L55560 42950
L55580 42880
L55590 42840
L55630 42800
L55690 42780
L55730 42780
L55780 42800
L55800 42820
" />
<path d="M55980 43180
L55980 42780
" />
<path d="M56170 43180
L56170 42780
L56390 43180
L56390 42780
" />
<path d="M56530 42780
L56760 42780
" />
<path d="M56640 43180
L56640 42780
" />
<path d="M57090 43180
L56870 43180
" />
<path d="M56980 43180
L56980 42780
L56940 42840
L56900 42880
L56870 42900
" />
<path d="M57440 42780
L57360 42780
L57320 42800
L57300 42820
L57270 42880
L57250 42950
L57250 43100
L57270 43140
L57280 43160
L57320 43180
L57400 43180
L57440 43160
L57460 43140
L57470 43100
L57470 43010
L57460 42970
L57440 42950
L57400 42930
L57320 42930
L57280 42950
L57270 42970
L57250 43010
" />
<path d="M57930 42760
L57590 43280
" />
<path d="M58290 43180
L58160 42990
" />
<path d="M58070 43180
L58070 42780
L58220 42780
L58260 42800
L58270 42820
L58290 42860
L58290 42910
L58270 42950
L58260 42970
L58220 42990
L58070 42990
" />
<path d="M58430 42780
L58690 43180
" />
<path d="M58690 42780
L58430 43180
" />
<path d="M58850 43180
L58850 42780
L58940 42780
L59000 42800
L59040 42840
L59050 42880
L59070 42950
L59070 43010
L59050 43090
L59040 43120
L59000 43160
L58940 43180
L58850 43180
" />
<path d="M59210 43330
L59230 43310
L59260 43260
L59280 43220
L59300 43160
L59320 43070
L59320 42990
L59300 42900
L59280 42840
L59260 42800
L59230 42740
L59210 42720
" />
<path d="M59520 43180
L59520 42780
L59670 42780
L59710 42800
L59720 42820
L59740 42860
L59740 42910
L59720 42950
L59710 42970
L59670 42990
L59520 42990
" />
<path d="M59920 43180
L59920 42780
L60010 42780
L60070 42800
L60110 42840
L60120 42880
L60140 42950
L60140 43010
L60120 43090
L60110 43120
L60070 43160
L60010 43180
L59920 43180
" />
<path d="M60390 42780
L60430 42780
L60470 42800
L60490 42820
L60510 42860
L60520 42930
L60520 43030
L60510 43100
L60490 43140
L60470 43160
L60430 43180
L60390 43180
L60350 43160
L60330 43140
L60320 43100
L60300 43030
L60300 42930
L60320 42860
L60330 42820
L60350 42800
L60390 42780
" />
<path d="M61640 42520
L61660 42500
L61690 42480
L61790 42480
L61830 42500
L61850 42520
L61860 42560
L61860 42600
L61850 42650
L61620 42880
L61860 42880
" />
<path d="M61000 44000
L62500 44000
" />
<path d="M55120 44330
L55100 44310
L55060 44260
L55040 44220
L55020 44160
L55010 44070
L55010 43990
L55020 43900
L55040 43840
L55060 43800
L55100 43740
L55120 43720
" />
<path d="M55280 44180
L55280 43780
L55430 43780
L55470 43800
L55480 43820
L55500 43860
L55500 43910
L55480 43950
L55470 43970
L55430 43990
L55280 43990
" />
<path d="M55900 44140
L55880 44160
L55830 44180
L55790 44180
L55730 44160
L55690 44120
L55680 44090
L55660 44010
L55660 43950
L55680 43880
L55690 43840
L55730 43800
L55790 43780
L55830 43780
L55880 43800
L55900 43820
" />
<path d="M56080 44180
L56080 43780
" />
<path d="M56270 44180
L56270 43780
L56490 44180
L56490 43780
" />
<path d="M56630 43780
L56860 43780
" />
<path d="M56740 44180
L56740 43780
" />
<path d="M57190 44180
L56970 44180
" />
<path d="M57080 44180
L57080 43780
L57040 43840
L57000 43880
L56970 43900
" />
<path d="M57330 43780
L57590 43780
L57420 44180
" />
<path d="M58030 43760
L57690 44280
" />
<path d="M58110 43780
L58340 43780
" />
<path d="M58220 44180
L58220 43780
" />
<path d="M58430 43780
L58690 44180
" />
<path d="M58690 43780
L58430 44180
" />
<path d="M58850 44180
L58850 43780
L58940 43780
L59000 43800
L59040 43840
L59050 43880
L59070 43950
L59070 44010
L59050 44090
L59040 44120
L59000 44160
L58940 44180
L58850 44180
" />
<path d="M59210 44330
L59230 44310
L59260 44260
L59280 44220
L59300 44160
L59320 44070
L59320 43990
L59300 43900
L59280 43840
L59260 43800
L59230 43740
L59210 43720
" />
<path d="M59520 44180
L59520 43780
L59670 43780
L59710 43800
L59720 43820
L59740 43860
L59740 43910
L59720 43950
L59710 43970
L59670 43990
L59520 43990
" />
<path d="M59920 44180
L59920 43780
L60010 43780
L60070 43800
L60110 43840
L60120 43880
L60140 43950
L60140 44010
L60120 44090
L60110 44120
L60070 44160
L60010 44180
L59920 44180
" />
<path d="M60520 44180
L60300 44180
" />
<path d="M60410 44180
L60410 43780
L60370 43840
L60330 43880
L60300 43900
" />
<path d="M61620 43480
L61860 43480
L61730 43630
L61790 43630
L61830 43650
L61850 43670
L61860 43710
L61860 43800
L61850 43840
L61830 43860
L61790 43880
L61670 43880
L61640 43860
L61620 43840
" />
<path d="M61000 45000
L62500 45000
" />
<path d="M54910 45330
L54890 45310
L54850 45260
L54830 45220
L54810 45160
L54800 45070
L54800 44990
L54810 44900
L54830 44840
L54850 44800
L54890 44740
L54910 44720
" />
<path d="M55070 45180
L55070 44780
L55220 44780
L55260 44800
L55270 44820
L55290 44860
L55290 44910
L55270 44950
L55260 44970
L55220 44990
L55070 44990
" />
<path d="M55690 45140
L55670 45160
L55620 45180
L55580 45180
L55520 45160
L55480 45120
L55470 45090
L55450 45010
L55450 44950
L55470 44880
L55480 44840
L55520 44800
L55580 44780
L55620 44780
L55670 44800
L55690 44820
" />
<path d="M55870 45180
L55870 44780
" />
<path d="M56060 45180
L56060 44780
L56280 45180
L56280 44780
" />
<path d="M56420 44780
L56650 44780
" />
<path d="M56530 45180
L56530 44780
" />
<path d="M56980 45180
L56760 45180
" />
<path d="M56870 45180
L56870 44780
L56830 44840
L56790 44880
L56760 44900
" />
<path d="M57210 44950
L57170 44930
L57160 44910
L57140 44880
L57140 44860
L57160 44820
L57170 44800
L57210 44780
L57290 44780
L57330 44800
L57350 44820
L57360 44860
L57360 44880
L57350 44910
L57330 44930
L57290 44950
L57210 44950
L57170 44970
L57160 44990
L57140 45030
L57140 45100
L57160 45140
L57170 45160
L57210 45180
L57290 45180
L57330 45160
L57350 45140
L57360 45100
L57360 45030
L57350 44990
L57330 44970
L57290 44950
" />
<path d="M57820 44760
L57480 45280
" />
<path d="M57960 45180
L57960 44780
" />
<path d="M58150 45180
L58150 44780
L58370 45180
L58370 44780
" />
<path d="M58510 44780
L58740 44780
" />
<path d="M58620 45180
L58620 44780
" />
<path d="M58940 44780
L58980 44780
L59020 44800
L59040 44820
L59060 44860
L59070 44930
L59070 45030
L59060 45100
L59040 45140
L59020 45160
L58980 45180
L58940 45180
L58900 45160
L58880 45140
L58870 45100
L58850 45030
L58850 44930
L58870 44860
L58880 44820
L58900 44800
L58940 44780
" />
<path d="M59210 45330
L59230 45310
L59260 45260
L59280 45220
L59300 45160
L59320 45070
L59320 44990
L59300 44900
L59280 44840
L59260 44800
L59230 44740
L59210 44720
" />
<path d="M59520 45180
L59520 44780
L59670 44780
L59710 44800
L59720 44820
L59740 44860
L59740 44910
L59720 44950
L59710 44970
L59670 44990
L59520 44990
" />
<path d="M59920 45180
L59920 44780
L60010 44780
L60070 44800
L60110 44840
L60120 44880
L60140 44950
L60140 45010
L60120 45090
L60110 45120
L60070 45160
L60010 45180
L59920 45180
" />
<path d="M60300 44820
L60320 44800
L60350 44780
L60450 44780
L60490 44800
L60510 44820
L60520 44860
L60520 44900
L60510 44950
L60280 45180
L60520 45180
" />
<path d="M61830 44610
L61830 44880
" />
<path d="M61730 44460
L61640 44750
L61880 44750
" />
<path d="M61000 46000
L62500 46000
" />
<path d="M52890 46330
L52870 46310
L52830 46260
L52810 46220
L52790 46160
L52780 46070
L52780 45990
L52790 45900
L52810 45840
L52830 45800
L52870 45740
L52890 45720
" />
<path d="M53050 46180
L53050 45780
L53200 45780
L53240 45800
L53250 45820
L53270 45860
L53270 45910
L53250 45950
L53240 45970
L53200 45990
L53050 45990
" />
<path d="M53670 46140
L53650 46160
L53600 46180
L53560 46180
L53500 46160
L53460 46120
L53450 46090
L53430 46010
L53430 45950
L53450 45880
L53460 45840
L53500 45800
L53560 45780
L53600 45780
L53650 45800
L53670 45820
" />
<path d="M53850 46180
L53850 45780
" />
<path d="M54040 46180
L54040 45780
L54260 46180
L54260 45780
" />
<path d="M54400 45780
L54630 45780
" />
<path d="M54510 46180
L54510 45780
" />
<path d="M54960 46180
L54740 46180
" />
<path d="M54850 46180
L54850 45780
L54810 45840
L54770 45880
L54740 45900
" />
<path d="M55150 46180
L55230 46180
L55270 46160
L55290 46140
L55330 46090
L55340 46010
L55340 45860
L55330 45820
L55310 45800
L55270 45780
L55190 45780
L55150 45800
L55140 45820
L55120 45860
L55120 45950
L55140 45990
L55150 46010
L55190 46030
L55270 46030
L55310 46010
L55330 45990
L55340 45950
" />
<path d="M55800 45760
L55460 46280
" />
<path d="M56010 45780
L56090 45780
L56130 45800
L56160 45840
L56180 45910
L56180 46050
L56160 46120
L56130 46160
L56090 46180
L56010 46180
L55970 46160
L55940 46120
L55920 46050
L55920 45910
L55940 45840
L55970 45800
L56010 45780
" />
<path d="M56580 46140
L56560 46160
L56510 46180
L56470 46180
L56410 46160
L56370 46120
L56360 46090
L56340 46010
L56340 45950
L56360 45880
L56370 45840
L56410 45800
L56470 45780
L56510 45780
L56560 45800
L56580 45820
" />
<path d="M56740 45820
L56760 45800
L56790 45780
L56890 45780
L56930 45800
L56950 45820
L56960 45860
L56960 45900
L56950 45950
L56720 46180
L56960 46180
" />
<path d="M57270 45970
L57330 45990
L57340 46010
L57360 46050
L57360 46100
L57340 46140
L57330 46160
L57290 46180
L57140 46180
L57140 45780
L57270 45780
L57310 45800
L57330 45820
L57340 45860
L57340 45900
L57330 45930
L57310 45950
L57270 45970
L57140 45970
" />
<path d="M57820 45760
L57480 46280
" />
<path d="M57960 46180
L57960 45780
" />
<path d="M58150 46180
L58150 45780
L58370 46180
L58370 45780
" />
<path d="M58510 45780
L58740 45780
" />
<path d="M58620 46180
L58620 45780
" />
<path d="M59070 46180
L58850 46180
" />
<path d="M58960 46180
L58960 45780
L58920 45840
L58880 45880
L58850 45900
" />
<path d="M59210 46330
L59230 46310
L59260 46260
L59280 46220
L59300 46160
L59320 46070
L59320 45990
L59300 45900
L59280 45840
L59260 45800
L59230 45740
L59210 45720
" />
<path d="M59520 46180
L59520 45780
L59670 45780
L59710 45800
L59720 45820
L59740 45860
L59740 45910
L59720 45950
L59710 45970
L59670 45990
L59520 45990
" />
<path d="M59920 46180
L59920 45780
L60010 45780
L60070 45800
L60110 45840
L60120 45880
L60140 45950
L60140 46010
L60120 46090
L60110 46120
L60070 46160
L60010 46180
L59920 46180
" />
<path d="M60280 45780
L60520 45780
L60390 45930
L60450 45930
L60490 45950
L60510 45970
L60520 46010
L60520 46100
L60510 46140
L60490 46160
L60450 46180
L60330 46180
L60300 46160
L60280 46140
" />
<path d="M61850 45480
L61660 45480
L61640 45670
L61660 45650
L61690 45630
L61790 45630
L61830 45650
L61850 45670
L61860 45710
L61860 45800
L61850 45840
L61830 45860
L61790 45880
L61690 45880
L61660 45860
L61640 45840
" />
<path d="M61000 47000
L62500 47000
" />
<path d="M53920 47330
L53900 47310
L53860 47260
L53840 47220
L53820 47160
L53810 47070
L53810 46990
L53820 46900
L53840 46840
L53860 46800
L53900 46740
L53920 46720
" />
<path d="M54080 47180
L54080 46780
L54230 46780
L54270 46800
L54280 46820
L54300 46860
L54300 46910
L54280 46950
L54270 46970
L54230 46990
L54080 46990
" />
<path d="M54700 47140
L54680 47160
L54630 47180
L54590 47180
L54530 47160
L54490 47120
L54480 47090
L54460 47010
L54460 46950
L54480 46880
L54490 46840
L54530 46800
L54590 46780
L54630 46780
L54680 46800
L54700 46820
" />
<path d="M54880 47180
L54880 46780
" />
<path d="M55070 47180
L55070 46780
L55290 47180
L55290 46780
" />
<path d="M55430 46780
L55660 46780
" />
<path d="M55540 47180
L55540 46780
" />
<path d="M55770 46820
L55790 46800
L55820 46780
L55920 46780
L55960 46800
L55980 46820
L55990 46860
L55990 46900
L55980 46950
L55750 47180
L55990 47180
" />
<path d="M56240 46780
L56280 46780
L56320 46800
L56340 46820
L56360 46860
L56370 46930
L56370 47030
L56360 47100
L56340 47140
L56320 47160
L56280 47180
L56240 47180
L56200 47160
L56180 47140
L56170 47100
L56150 47030
L56150 46930
L56170 46860
L56180 46820
L56200 46800
L56240 46780
" />
<path d="M56830 46760
L56490 47280
" />
<path d="M56930 46780
L57190 47180
" />
<path d="M57190 46780
L56930 47180
" />
<path d="M57570 47140
L57550 47160
L57500 47180
L57460 47180
L57400 47160
L57360 47120
L57350 47090
L57330 47010
L57330 46950
L57350 46880
L57360 46840
L57400 46800
L57460 46780
L57500 46780
L57550 46800
L57570 46820
" />
<path d="M57750 47180
L57750 46780
" />
<path d="M57970 47180
L57800 46950
" />
<path d="M57970 46780
L57750 47010
" />
<path d="M58430 46760
L58090 47280
" />
<path d="M58510 46780
L58740 46780
" />
<path d="M58620 47180
L58620 46780
" />
<path d="M58940 46780
L58980 46780
L59020 46800
L59040 46820
L59060 46860
L59070 46930
L59070 47030
L59060 47100
L59040 47140
L59020 47160
L58980 47180
L58940 47180
L58900 47160
L58880 47140
L58870 47100
L58850 47030
L58850 46930
L58870 46860
L58880 46820
L58900 46800
L58940 46780
" />
<path d="M59210 47330
L59230 47310
L59260 47260
L59280 47220
L59300 47160
L59320 47070
L59320 46990
L59300 46900
L59280 46840
L59260 46800
L59230 46740
L59210 46720
" />
<path d="M59520 47180
L59520 46780
L59670 46780
L59710 46800
L59720 46820
L59740 46860
L59740 46910
L59720 46950
L59710 46970
L59670 46990
L59520 46990
" />
<path d="M59920 47180
L59920 46780
L60010 46780
L60070 46800
L60110 46840
L60120 46880
L60140 46950
L60140 47010
L60120 47090
L60110 47120
L60070 47160
L60010 47180
L59920 47180
" />
<path d="M60490 46910
L60490 47180
" />
<path d="M60390 46760
L60300 47050
L60540 47050
" />
<path d="M61830 46480
L61750 46480
L61710 46500
L61690 46520
L61660 46580
L61640 46650
L61640 46800
L61660 46840
L61670 46860
L61710 46880
L61790 46880
L61830 46860
L61850 46840
L61860 46800
L61860 46710
L61850 46670
L61830 46650
L61790 46630
L61710 46630
L61670 46650
L61660 46670
L61640 46710
" />
<path d="M45000 27000
L43500 27000
" />
<path d="M45440 26780
L45570 27180
L45700 26780
" />
<path d="M46060 27140
L46040 27160
L45990 27180
L45950 27180
L45890 27160
L45850 27120
L45840 27090
L45820 27010
L45820 26950
L45840 26880
L45850 26840
L45890 26800
L45950 26780
L45990 26780
L46040 26800
L46060 26820
" />
<path d="M46460 27140
L46440 27160
L46390 27180
L46350 27180
L46290 27160
L46250 27120
L46240 27090
L46220 27010
L46220 26950
L46240 26880
L46250 26840
L46290 26800
L46350 26780
L46390 26780
L46440 26800
L46460 26820
" />
<path d="M44120 26480
L44380 26480
L44210 26880
" />
<path d="M45000 50000
L43500 50000
" />
<path d="M45700 49800
L45670 49780
L45610 49780
L45550 49800
L45510 49840
L45500 49880
L45480 49950
L45480 50010
L45500 50090
L45510 50120
L45550 50160
L45610 50180
L45650 50180
L45700 50160
L45720 50140
L45720 50010
L45650 50010
" />
<path d="M45900 50180
L45900 49780
L46120 50180
L46120 49780
" />
<path d="M46320 50180
L46320 49780
L46410 49780
L46470 49800
L46510 49840
L46520 49880
L46540 49950
L46540 50010
L46520 50090
L46510 50120
L46470 50160
L46410 50180
L46320 50180
" />
<path d="M44210 49650
L44170 49630
L44160 49610
L44140 49580
L44140 49560
L44160 49520
L44170 49500
L44210 49480
L44290 49480
L44330 49500
L44350 49520
L44360 49560
L44360 49580
L44350 49610
L44330 49630
L44290 49650
L44210 49650
L44170 49670
L44160 49690
L44140 49730
L44140 49800
L44160 49840
L44170 49860
L44210 49880
L44290 49880
L44330 49860
L44350 49840
L44360 49800
L44360 49730
L44350 49690
L44330 49670
L44290 49650
" />
<path d="M61000 33000
L62500 33000
" />
<path d="M52560 33330
L52540 33310
L52500 33260
L52480 33220
L52460 33160
L52450 33070
L52450 32990
L52460 32900
L52480 32840
L52500 32800
L52540 32740
L52560 32720
" />
<path d="M52720 33180
L52720 32780
L52870 32780
L52910 32800
L52920 32820
L52940 32860
L52940 32910
L52920 32950
L52910 32970
L52870 32990
L52720 32990
" />
<path d="M53340 33140
L53320 33160
L53270 33180
L53230 33180
L53170 33160
L53130 33120
L53120 33090
L53100 33010
L53100 32950
L53120 32880
L53130 32840
L53170 32800
L53230 32780
L53270 32780
L53320 32800
L53340 32820
" />
<path d="M53520 33180
L53520 32780
" />
<path d="M53710 33180
L53710 32780
L53930 33180
L53930 32780
" />
<path d="M54070 32780
L54300 32780
" />
<path d="M54180 33180
L54180 32780
" />
<path d="M54600 32780
L54520 32780
L54480 32800
L54460 32820
L54430 32880
L54410 32950
L54410 33100
L54430 33140
L54440 33160
L54480 33180
L54560 33180
L54600 33160
L54620 33140
L54630 33100
L54630 33010
L54620 32970
L54600 32950
L54560 32930
L54480 32930
L54440 32950
L54430 32970
L54410 33010
" />
<path d="M55090 32760
L54750 33280
" />
<path d="M55190 32780
L55450 33180
" />
<path d="M55450 32780
L55190 33180
" />
<path d="M55550 32780
L55780 32780
" />
<path d="M55660 33180
L55660 32780
" />
<path d="M55890 33070
L56080 33070
" />
<path d="M55850 33180
L55980 32780
L56110 33180
" />
<path d="M56440 33180
L56250 33180
L56250 32780
" />
<path d="M56770 33180
L56550 33180
" />
<path d="M56660 33180
L56660 32780
L56620 32840
L56580 32880
L56550 32900
" />
<path d="M57230 32760
L56890 33280
" />
<path d="M57310 32780
L57540 32780
" />
<path d="M57420 33180
L57420 32780
" />
<path d="M57740 32780
L57820 32780
L57860 32800
L57890 32840
L57910 32910
L57910 33050
L57890 33120
L57860 33160
L57820 33180
L57740 33180
L57700 33160
L57670 33120
L57650 33050
L57650 32910
L57670 32840
L57700 32800
L57740 32780
" />
<path d="M58070 33160
L58120 33180
L58220 33180
L58260 33160
L58280 33140
L58290 33100
L58290 33070
L58280 33030
L58260 33010
L58220 32990
L58140 32970
L58100 32950
L58090 32930
L58070 32900
L58070 32860
L58090 32820
L58100 32800
L58140 32780
L58240 32780
L58290 32800
" />
<path d="M58690 33140
L58670 33160
L58620 33180
L58580 33180
L58520 33160
L58480 33120
L58470 33090
L58450 33010
L58450 32950
L58470 32880
L58480 32840
L58520 32800
L58580 32780
L58620 32780
L58670 32800
L58690 32820
" />
<path d="M59070 33180
L58850 33180
" />
<path d="M58960 33180
L58960 32780
L58920 32840
L58880 32880
L58850 32900
" />
<path d="M59210 33330
L59230 33310
L59260 33260
L59280 33220
L59300 33160
L59320 33070
L59320 32990
L59300 32900
L59280 32840
L59260 32800
L59230 32740
L59210 32720
" />
<path d="M59520 33180
L59520 32780
L59670 32780
L59710 32800
L59720 32820
L59740 32860
L59740 32910
L59720 32950
L59710 32970
L59670 32990
L59520 32990
" />
<path d="M60050 32970
L60110 32990
L60120 33010
L60140 33050
L60140 33100
L60120 33140
L60110 33160
L60070 33180
L59920 33180
L59920 32780
L60050 32780
L60090 32800
L60110 32820
L60120 32860
L60120 32900
L60110 32930
L60090 32950
L60050 32970
L59920 32970
" />
<path d="M60490 32780
L60410 32780
L60370 32800
L60350 32820
L60320 32880
L60300 32950
L60300 33100
L60320 33140
L60330 33160
L60370 33180
L60450 33180
L60490 33160
L60510 33140
L60520 33100
L60520 33010
L60510 32970
L60490 32950
L60450 32930
L60370 32930
L60330 32950
L60320 32970
L60300 33010
" />
<path d="M61670 32880
L61750 32880
L61790 32860
L61810 32840
L61850 32790
L61860 32710
L61860 32560
L61850 32520
L61830 32500
L61790 32480
L61710 32480
L61670 32500
L61660 32520
L61640 32560
L61640 32650
L61660 32690
L61670 32710
L61710 32730
L61790 32730
L61830 32710
L61850 32690
L61860 32650
" />
<path d="M61000 34000
L62500 34000
" />
<path d="M52560 34330
L52540 34310
L52500 34260
L52480 34220
L52460 34160
L52450 34070
L52450 33990
L52460 33900
L52480 33840
L52500 33800
L52540 33740
L52560 33720
" />
<path d="M52720 34180
L52720 33780
L52870 33780
L52910 33800
L52920 33820
L52940 33860
L52940 33910
L52920 33950
L52910 33970
L52870 33990
L52720 33990
" />
<path d="M53340 34140
L53320 34160
L53270 34180
L53230 34180
L53170 34160
L53130 34120
L53120 34090
L53100 34010
L53100 33950
L53120 33880
L53130 33840
L53170 33800
L53230 33780
L53270 33780
L53320 33800
L53340 33820
" />
<path d="M53520 34180
L53520 33780
" />
<path d="M53710 34180
L53710 33780
L53930 34180
L53930 33780
" />
<path d="M54070 33780
L54300 33780
" />
<path d="M54180 34180
L54180 33780
" />
<path d="M54390 33780
L54650 33780
L54480 34180
" />
<path d="M55090 33760
L54750 34280
" />
<path d="M55190 33780
L55450 34180
" />
<path d="M55450 33780
L55190 34180
" />
<path d="M55550 33780
L55780 33780
" />
<path d="M55660 34180
L55660 33780
" />
<path d="M55890 34070
L56080 34070
" />
<path d="M55850 34180
L55980 33780
L56110 34180
" />
<path d="M56440 34180
L56250 34180
L56250 33780
" />
<path d="M56550 33820
L56570 33800
L56600 33780
L56700 33780
L56740 33800
L56760 33820
L56770 33860
L56770 33900
L56760 33950
L56530 34180
L56770 34180
" />
<path d="M57230 33760
L56890 34280
" />
<path d="M57310 33780
L57540 33780
" />
<path d="M57420 34180
L57420 33780
" />
<path d="M57740 33780
L57820 33780
L57860 33800
L57890 33840
L57910 33910
L57910 34050
L57890 34120
L57860 34160
L57820 34180
L57740 34180
L57700 34160
L57670 34120
L57650 34050
L57650 33910
L57670 33840
L57700 33800
L57740 33780
" />
<path d="M58070 34160
L58120 34180
L58220 34180
L58260 34160
L58280 34140
L58290 34100
L58290 34070
L58280 34030
L58260 34010
L58220 33990
L58140 33970
L58100 33950
L58090 33930
L58070 33900
L58070 33860
L58090 33820
L58100 33800
L58140 33780
L58240 33780
L58290 33800
" />
<path d="M58690 34140
L58670 34160
L58620 34180
L58580 34180
L58520 34160
L58480 34120
L58470 34090
L58450 34010
L58450 33950
L58470 33880
L58480 33840
L58520 33800
L58580 33780
L58620 33780
L58670 33800
L58690 33820
" />
<path d="M58850 33820
L58870 33800
L58900 33780
L59000 33780
L59040 33800
L59060 33820
L59070 33860
L59070 33900
L59060 33950
L58830 34180
L59070 34180
" />
<path d="M59210 34330
L59230 34310
L59260 34260
L59280 34220
L59300 34160
L59320 34070
L59320 33990
L59300 33900
L59280 33840
L59260 33800
L59230 33740
L59210 33720
" />
<path d="M59520 34180
L59520 33780
L59670 33780
L59710 33800
L59720 33820
L59740 33860
L59740 33910
L59720 33950
L59710 33970
L59670 33990
L59520 33990
" />
<path d="M60050 33970
L60110 33990
L60120 34010
L60140 34050
L60140 34100
L60120 34140
L60110 34160
L60070 34180
L59920 34180
L59920 33780
L60050 33780
L60090 33800
L60110 33820
L60120 33860
L60120 33900
L60110 33930
L60090 33950
L60050 33970
L59920 33970
" />
<path d="M60280 33780
L60540 33780
L60370 34180
" />
<path d="M61670 33880
L61450 33880
" />
<path d="M61560 33880
L61560 33480
L61520 33540
L61480 33580
L61450 33600
" />
<path d="M61920 33480
L61960 33480
L62000 33500
L62020 33520
L62040 33560
L62050 33630
L62050 33730
L62040 33800
L62020 33840
L62000 33860
L61960 33880
L61920 33880
L61880 33860
L61860 33840
L61850 33800
L61830 33730
L61830 33630
L61850 33560
L61860 33520
L61880 33500
L61920 33480
" />
<path d="M45000 30000
L43500 30000
" />
<path d="M45480 30070
L45670 30070
" />
<path d="M45440 30180
L45570 29780
L45700 30180
" />
<path d="M45780 29780
L45910 30180
L46040 29780
" />
<path d="M46400 30140
L46380 30160
L46330 30180
L46290 30180
L46230 30160
L46190 30120
L46180 30090
L46160 30010
L46160 29950
L46180 29880
L46190 29840
L46230 29800
L46290 29780
L46330 29780
L46380 29800
L46400 29820
" />
<path d="M46800 30140
L46780 30160
L46730 30180
L46690 30180
L46630 30160
L46590 30120
L46580 30090
L46560 30010
L46560 29950
L46580 29880
L46590 29840
L46630 29800
L46690 29780
L46730 29780
L46780 29800
L46800 29820
" />
<path d="M43950 29520
L43970 29500
L44000 29480
L44100 29480
L44140 29500
L44160 29520
L44170 29560
L44170 29600
L44160 29650
L43930 29880
L44170 29880
" />
<path d="M44420 29480
L44460 29480
L44500 29500
L44520 29520
L44540 29560
L44550 29630
L44550 29730
L44540 29800
L44520 29840
L44500 29860
L44460 29880
L44420 29880
L44380 29860
L44360 29840
L44350 29800
L44330 29730
L44330 29630
L44350 29560
L44360 29520
L44380 29500
L44420 29480
" />
<path d="M61000 48000
L62500 48000
" />
<path d="M53500 48330
L53480 48310
L53440 48260
L53420 48220
L53400 48160
L53390 48070
L53390 47990
L53400 47900
L53420 47840
L53440 47800
L53480 47740
L53500 47720
" />
<path d="M53660 48180
L53660 47780
L53810 47780
L53850 47800
L53860 47820
L53880 47860
L53880 47910
L53860 47950
L53850 47970
L53810 47990
L53660 47990
" />
<path d="M54280 48140
L54260 48160
L54210 48180
L54170 48180
L54110 48160
L54070 48120
L54060 48090
L54040 48010
L54040 47950
L54060 47880
L54070 47840
L54110 47800
L54170 47780
L54210 47780
L54260 47800
L54280 47820
" />
<path d="M54460 48180
L54460 47780
" />
<path d="M54650 48180
L54650 47780
L54870 48180
L54870 47780
" />
<path d="M55010 47780
L55240 47780
" />
<path d="M55120 48180
L55120 47780
" />
<path d="M55350 47820
L55370 47800
L55400 47780
L55500 47780
L55540 47800
L55560 47820
L55570 47860
L55570 47900
L55560 47950
L55330 48180
L55570 48180
" />
<path d="M55950 48180
L55730 48180
" />
<path d="M55840 48180
L55840 47780
L55800 47840
L55760 47880
L55730 47900
" />
<path d="M56410 47760
L56070 48280
" />
<path d="M56620 47780
L56700 47780
L56740 47800
L56770 47840
L56790 47910
L56790 48050
L56770 48120
L56740 48160
L56700 48180
L56620 48180
L56580 48160
L56550 48120
L56530 48050
L56530 47910
L56550 47840
L56580 47800
L56620 47780
" />
<path d="M57190 48140
L57170 48160
L57120 48180
L57080 48180
L57020 48160
L56980 48120
L56970 48090
L56950 48010
L56950 47950
L56970 47880
L56980 47840
L57020 47800
L57080 47780
L57120 47780
L57170 47800
L57190 47820
" />
<path d="M57440 47780
L57480 47780
L57520 47800
L57540 47820
L57560 47860
L57570 47930
L57570 48030
L57560 48100
L57540 48140
L57520 48160
L57480 48180
L57440 48180
L57400 48160
L57380 48140
L57370 48100
L57350 48030
L57350 47930
L57370 47860
L57380 47820
L57400 47800
L57440 47780
" />
<path d="M57880 47970
L57940 47990
L57950 48010
L57970 48050
L57970 48100
L57950 48140
L57940 48160
L57900 48180
L57750 48180
L57750 47780
L57880 47780
L57920 47800
L57940 47820
L57950 47860
L57950 47900
L57940 47930
L57920 47950
L57880 47970
L57750 47970
" />
<path d="M58430 47760
L58090 48280
" />
<path d="M58510 47780
L58740 47780
" />
<path d="M58620 48180
L58620 47780
" />
<path d="M59070 48180
L58850 48180
" />
<path d="M58960 48180
L58960 47780
L58920 47840
L58880 47880
L58850 47900
" />
<path d="M59210 48330
L59230 48310
L59260 48260
L59280 48220
L59300 48160
L59320 48070
L59320 47990
L59300 47900
L59280 47840
L59260 47800
L59230 47740
L59210 47720
" />
<path d="M59520 48180
L59520 47780
L59670 47780
L59710 47800
L59720 47820
L59740 47860
L59740 47910
L59720 47950
L59710 47970
L59670 47990
L59520 47990
" />
<path d="M59920 48180
L59920 47780
L60010 47780
L60070 47800
L60110 47840
L60120 47880
L60140 47950
L60140 48010
L60120 48090
L60110 48120
L60070 48160
L60010 48180
L59920 48180
" />
<path d="M60510 47780
L60320 47780
L60300 47970
L60320 47950
L60350 47930
L60450 47930
L60490 47950
L60510 47970
L60520 48010
L60520 48100
L60510 48140
L60490 48160
L60450 48180
L60350 48180
L60320 48160
L60300 48140
" />
<path d="M61670 47880
L61450 47880
" />
<path d="M61560 47880
L61560 47480
L61520 47540
L61480 47580
L61450 47600
" />
<path d="M62050 47880
L61830 47880
" />
<path d="M61940 47880
L61940 47480
L61900 47540
L61860 47580
L61830 47600
" />
<path d="M45000 33000
L43500 33000
" />
<path d="M45480 33070
L45670 33070
" />
<path d="M45440 33180
L45570 32780
L45700 33180
" />
<path d="M46060 33180
L45930 32990
" />
<path d="M45840 33180
L45840 32780
L45990 32780
L46030 32800
L46040 32820
L46060 32860
L46060 32910
L46040 32950
L46030 32970
L45990 32990
L45840 32990
" />
<path d="M46240 32970
L46370 32970
" />
<path d="M46430 33180
L46240 33180
L46240 32780
L46430 32780
" />
<path d="M46730 32970
L46600 32970
" />
<path d="M46600 33180
L46600 32780
L46790 32780
" />
<path d="M43950 32520
L43970 32500
L44000 32480
L44100 32480
L44140 32500
L44160 32520
L44170 32560
L44170 32600
L44160 32650
L43930 32880
L44170 32880
" />
<path d="M44550 32880
L44330 32880
" />
<path d="M44440 32880
L44440 32480
L44400 32540
L44360 32580
L44330 32600
" />
<path d="M61000 49000
L62500 49000
" />
<path d="M52910 49330
L52890 49310
L52850 49260
L52830 49220
L52810 49160
L52800 49070
L52800 48990
L52810 48900
L52830 48840
L52850 48800
L52890 48740
L52910 48720
" />
<path d="M53070 49180
L53070 48780
L53220 48780
L53260 48800
L53270 48820
L53290 48860
L53290 48910
L53270 48950
L53260 48970
L53220 48990
L53070 48990
" />
<path d="M53690 49140
L53670 49160
L53620 49180
L53580 49180
L53520 49160
L53480 49120
L53470 49090
L53450 49010
L53450 48950
L53470 48880
L53480 48840
L53520 48800
L53580 48780
L53620 48780
L53670 48800
L53690 48820
" />
<path d="M53870 49180
L53870 48780
" />
<path d="M54060 49180
L54060 48780
L54280 49180
L54280 48780
" />
<path d="M54420 48780
L54650 48780
" />
<path d="M54530 49180
L54530 48780
" />
<path d="M54760 48820
L54780 48800
L54810 48780
L54910 48780
L54950 48800
L54970 48820
L54980 48860
L54980 48900
L54970 48950
L54740 49180
L54980 49180
" />
<path d="M55140 48820
L55160 48800
L55190 48780
L55290 48780
L55330 48800
L55350 48820
L55360 48860
L55360 48900
L55350 48950
L55120 49180
L55360 49180
" />
<path d="M55820 48760
L55480 49280
" />
<path d="M56030 48780
L56110 48780
L56150 48800
L56180 48840
L56200 48910
L56200 49050
L56180 49120
L56150 49160
L56110 49180
L56030 49180
L55990 49160
L55960 49120
L55940 49050
L55940 48910
L55960 48840
L55990 48800
L56030 48780
" />
<path d="M56600 49140
L56580 49160
L56530 49180
L56490 49180
L56430 49160
L56390 49120
L56380 49090
L56360 49010
L56360 48950
L56380 48880
L56390 48840
L56430 48800
L56490 48780
L56530 48780
L56580 48800
L56600 48820
" />
<path d="M56850 48780
L56890 48780
L56930 48800
L56950 48820
L56970 48860
L56980 48930
L56980 49030
L56970 49100
L56950 49140
L56930 49160
L56890 49180
L56850 49180
L56810 49160
L56790 49140
L56780 49100
L56760 49030
L56760 48930
L56780 48860
L56790 48820
L56810 48800
L56850 48780
" />
<path d="M57140 49070
L57330 49070
" />
<path d="M57100 49180
L57230 48780
L57360 49180
" />
<path d="M57780 48760
L57440 49280
" />
<path d="M57900 49070
L58090 49070
" />
<path d="M57860 49180
L57990 48780
L58120 49180
" />
<path d="M58260 49180
L58260 48780
" />
<path d="M58450 49180
L58450 48780
L58670 49180
L58670 48780
" />
<path d="M58940 48780
L58980 48780
L59020 48800
L59040 48820
L59060 48860
L59070 48930
L59070 49030
L59060 49100
L59040 49140
L59020 49160
L58980 49180
L58940 49180
L58900 49160
L58880 49140
L58870 49100
L58850 49030
L58850 48930
L58870 48860
L58880 48820
L58900 48800
L58940 48780
" />
<path d="M59210 49330
L59230 49310
L59260 49260
L59280 49220
L59300 49160
L59320 49070
L59320 48990
L59300 48900
L59280 48840
L59260 48800
L59230 48740
L59210 48720
" />
<path d="M59520 49180
L59520 48780
L59670 48780
L59710 48800
L59720 48820
L59740 48860
L59740 48910
L59720 48950
L59710 48970
L59670 48990
L59520 48990
" />
<path d="M59920 49180
L59920 48780
L60010 48780
L60070 48800
L60110 48840
L60120 48880
L60140 48950
L60140 49010
L60120 49090
L60110 49120
L60070 49160
L60010 49180
L59920 49180
" />
<path d="M60490 48780
L60410 48780
L60370 48800
L60350 48820
L60320 48880
L60300 48950
L60300 49100
L60320 49140
L60330 49160
L60370 49180
L60450 49180
L60490 49160
L60510 49140
L60520 49100
L60520 49010
L60510 48970
L60490 48950
L60450 48930
L60370 48930
L60330 48950
L60320 48970
L60300 49010
" />
<path d="M61670 48880
L61450 48880
" />
<path d="M61560 48880
L61560 48480
L61520 48540
L61480 48580
L61450 48600
" />
<path d="M61830 48520
L61850 48500
L61880 48480
L61980 48480
L62020 48500
L62040 48520
L62050 48560
L62050 48600
L62040 48650
L61810 48880
L62050 48880
" />
<path d="M45000 49000
L43500 49000
" />
<path d="M45700 48800
L45670 48780
L45610 48780
L45550 48800
L45510 48840
L45500 48880
L45480 48950
L45480 49010
L45500 49090
L45510 49120
L45550 49160
L45610 49180
L45650 49180
L45700 49160
L45720 49140
L45720 49010
L45650 49010
" />
<path d="M45900 49180
L45900 48780
L46120 49180
L46120 48780
" />
<path d="M46320 49180
L46320 48780
L46410 48780
L46470 48800
L46510 48840
L46520 48880
L46540 48950
L46540 49010
L46520 49090
L46510 49120
L46470 49160
L46410 49180
L46320 49180
" />
<path d="M43950 48520
L43970 48500
L44000 48480
L44100 48480
L44140 48500
L44160 48520
L44170 48560
L44170 48600
L44160 48650
L43930 48880
L44170 48880
" />
<path d="M44330 48520
L44350 48500
L44380 48480
L44480 48480
L44520 48500
L44540 48520
L44550 48560
L44550 48600
L44540 48650
L44310 48880
L44550 48880
" />
<path d="M61000 50000
L62500 50000
" />
<path d="M54870 50330
L54850 50310
L54810 50260
L54790 50220
L54770 50160
L54760 50070
L54760 49990
L54770 49900
L54790 49840
L54810 49800
L54850 49740
L54870 49720
" />
<path d="M55030 50180
L55030 49780
L55180 49780
L55220 49800
L55230 49820
L55250 49860
L55250 49910
L55230 49950
L55220 49970
L55180 49990
L55030 49990
" />
<path d="M55650 50140
L55630 50160
L55580 50180
L55540 50180
L55480 50160
L55440 50120
L55430 50090
L55410 50010
L55410 49950
L55430 49880
L55440 49840
L55480 49800
L55540 49780
L55580 49780
L55630 49800
L55650 49820
" />
<path d="M55830 50180
L55830 49780
" />
<path d="M56020 50180
L56020 49780
L56240 50180
L56240 49780
" />
<path d="M56380 49780
L56610 49780
" />
<path d="M56490 50180
L56490 49780
" />
<path d="M56720 49820
L56740 49800
L56770 49780
L56870 49780
L56910 49800
L56930 49820
L56940 49860
L56940 49900
L56930 49950
L56700 50180
L56940 50180
" />
<path d="M57080 49780
L57320 49780
L57190 49930
L57250 49930
L57290 49950
L57310 49970
L57320 50010
L57320 50100
L57310 50140
L57290 50160
L57250 50180
L57130 50180
L57100 50160
L57080 50140
" />
<path d="M57780 49760
L57440 50280
" />
<path d="M57900 50070
L58090 50070
" />
<path d="M57860 50180
L57990 49780
L58120 50180
" />
<path d="M58260 50180
L58260 49780
" />
<path d="M58450 50180
L58450 49780
L58670 50180
L58670 49780
" />
<path d="M59070 50180
L58850 50180
" />
<path d="M58960 50180
L58960 49780
L58920 49840
L58880 49880
L58850 49900
" />
<path d="M59210 50330
L59230 50310
L59260 50260
L59280 50220
L59300 50160
L59320 50070
L59320 49990
L59300 49900
L59280 49840
L59260 49800
L59230 49740
L59210 49720
" />
<path d="M59520 50180
L59520 49780
L59670 49780
L59710 49800
L59720 49820
L59740 49860
L59740 49910
L59720 49950
L59710 49970
L59670 49990
L59520 49990
" />
<path d="M59920 50180
L59920 49780
L60010 49780
L60070 49800
L60110 49840
L60120 49880
L60140 49950
L60140 50010
L60120 50090
L60110 50120
L60070 50160
L60010 50180
L59920 50180
" />
<path d="M60280 49780
L60540 49780
L60370 50180
" />
<path d="M61670 49880
L61450 49880
" />
<path d="M61560 49880
L61560 49480
L61520 49540
L61480 49580
L61450 49600
" />
<path d="M61810 49480
L62050 49480
L61920 49630
L61980 49630
L62020 49650
L62040 49670
L62050 49710
L62050 49800
L62040 49840
L62020 49860
L61980 49880
L61860 49880
L61830 49860
L61810 49840
" />
<path d="M61000 35500
L62500 35500
" />
<path d="M55060 35830
L55040 35810
L55000 35760
L54980 35720
L54960 35660
L54950 35570
L54950 35490
L54960 35400
L54980 35340
L55000 35300
L55040 35240
L55060 35220
" />
<path d="M55220 35680
L55220 35280
L55370 35280
L55410 35300
L55420 35320
L55440 35360
L55440 35410
L55420 35450
L55410 35470
L55370 35490
L55220 35490
" />
<path d="M55840 35640
L55820 35660
L55770 35680
L55730 35680
L55670 35660
L55630 35620
L55620 35590
L55600 35510
L55600 35450
L55620 35380
L55630 35340
L55670 35300
L55730 35280
L55770 35280
L55820 35300
L55840 35320
" />
<path d="M56020 35680
L56020 35280
" />
<path d="M56210 35680
L56210 35280
L56430 35680
L56430 35280
" />
<path d="M56570 35280
L56800 35280
" />
<path d="M56680 35680
L56680 35280
" />
<path d="M56980 35450
L56940 35430
L56930 35410
L56910 35380
L56910 35360
L56930 35320
L56940 35300
L56980 35280
L57060 35280
L57100 35300
L57120 35320
L57130 35360
L57130 35380
L57120 35410
L57100 35430
L57060 35450
L56980 35450
L56940 35470
L56930 35490
L56910 35530
L56910 35600
L56930 35640
L56940 35660
L56980 35680
L57060 35680
L57100 35660
L57120 35640
L57130 35600
L57130 35530
L57120 35490
L57100 35470
L57060 35450
" />
<path d="M57590 35260
L57250 35780
" />
<path d="M57710 35570
L57900 35570
" />
<path d="M57670 35680
L57800 35280
L57930 35680
" />
<path d="M58070 35680
L58070 35280
L58160 35280
L58220 35300
L58260 35340
L58270 35380
L58290 35450
L58290 35510
L58270 35590
L58260 35620
L58220 35660
L58160 35680
L58070 35680
" />
<path d="M58690 35640
L58670 35660
L58620 35680
L58580 35680
L58520 35660
L58480 35620
L58470 35590
L58450 35510
L58450 35450
L58470 35380
L58480 35340
L58520 35300
L58580 35280
L58620 35280
L58670 35300
L58690 35320
" />
<path d="M58940 35280
L58980 35280
L59020 35300
L59040 35320
L59060 35360
L59070 35430
L59070 35530
L59060 35600
L59040 35640
L59020 35660
L58980 35680
L58940 35680
L58900 35660
L58880 35640
L58870 35600
L58850 35530
L58850 35430
L58870 35360
L58880 35320
L58900 35300
L58940 35280
" />
<path d="M59210 35830
L59230 35810
L59260 35760
L59280 35720
L59300 35660
L59320 35570
L59320 35490
L59300 35400
L59280 35340
L59260 35300
L59230 35240
L59210 35220
" />
<path d="M59520 35680
L59520 35280
L59670 35280
L59710 35300
L59720 35320
L59740 35360
L59740 35410
L59720 35450
L59710 35470
L59670 35490
L59520 35490
" />
<path d="M60140 35640
L60120 35660
L60070 35680
L60030 35680
L59970 35660
L59930 35620
L59920 35590
L59900 35510
L59900 35450
L59920 35380
L59930 35340
L59970 35300
L60030 35280
L60070 35280
L60120 35300
L60140 35320
" />
<path d="M60390 35280
L60430 35280
L60470 35300
L60490 35320
L60510 35360
L60520 35430
L60520 35530
L60510 35600
L60490 35640
L60470 35660
L60430 35680
L60390 35680
L60350 35660
L60330 35640
L60320 35600
L60300 35530
L60300 35430
L60320 35360
L60330 35320
L60350 35300
L60390 35280
" />
<path d="M61450 35020
L61470 35000
L61500 34980
L61600 34980
L61640 35000
L61660 35020
L61670 35060
L61670 35100
L61660 35150
L61430 35380
L61670 35380
" />
<path d="M61810 34980
L62050 34980
L61920 35130
L61980 35130
L62020 35150
L62040 35170
L62050 35210
L62050 35300
L62040 35340
L62020 35360
L61980 35380
L61860 35380
L61830 35360
L61810 35340
" />
<path d="M61000 27000
L62500 27000
" />
<path d="M53250 27330
L53230 27310
L53190 27260
L53170 27220
L53150 27160
L53140 27070
L53140 26990
L53150 26900
L53170 26840
L53190 26800
L53230 26740
L53250 26720
" />
<path d="M53410 27180
L53410 26780
L53560 26780
L53600 26800
L53610 26820
L53630 26860
L53630 26910
L53610 26950
L53600 26970
L53560 26990
L53410 26990
" />
<path d="M54030 27140
L54010 27160
L53960 27180
L53920 27180
L53860 27160
L53820 27120
L53810 27090
L53790 27010
L53790 26950
L53810 26880
L53820 26840
L53860 26800
L53920 26780
L53960 26780
L54010 26800
L54030 26820
" />
<path d="M54210 27180
L54210 26780
" />
<path d="M54400 27180
L54400 26780
L54620 27180
L54620 26780
" />
<path d="M54760 26780
L54990 26780
" />
<path d="M54870 27180
L54870 26780
" />
<path d="M55190 26780
L55230 26780
L55270 26800
L55290 26820
L55310 26860
L55320 26930
L55320 27030
L55310 27100
L55290 27140
L55270 27160
L55230 27180
L55190 27180
L55150 27160
L55130 27140
L55120 27100
L55100 27030
L55100 26930
L55120 26860
L55130 26820
L55150 26800
L55190 26780
" />
<path d="M55780 26760
L55440 27280
" />
<path d="M56140 27140
L56120 27160
L56070 27180
L56030 27180
L55970 27160
L55930 27120
L55920 27090
L55900 27010
L55900 26950
L55920 26880
L55930 26840
L55970 26800
L56030 26780
L56070 26780
L56120 26800
L56140 26820
" />
<path d="M56510 27180
L56320 27180
L56320 26780
" />
<path d="M56640 27180
L56640 26780
" />
<path d="M56860 27180
L56690 26950
" />
<path d="M56860 26780
L56640 27010
" />
<path d="M57110 26780
L57190 26780
L57230 26800
L57260 26840
L57280 26910
L57280 27050
L57260 27120
L57230 27160
L57190 27180
L57110 27180
L57070 27160
L57040 27120
L57020 27050
L57020 26910
L57040 26840
L57070 26800
L57110 26780
" />
<path d="M57740 26760
L57400 27280
" />
<path d="M57880 27180
L57880 26780
" />
<path d="M58290 27140
L58270 27160
L58220 27180
L58180 27180
L58120 27160
L58080 27120
L58070 27090
L58050 27010
L58050 26950
L58070 26880
L58080 26840
L58120 26800
L58180 26780
L58220 26780
L58270 26800
L58290 26820
" />
<path d="M58470 27180
L58470 26780
L58620 26780
L58660 26800
L58670 26820
L58690 26860
L58690 26910
L58670 26950
L58660 26970
L58620 26990
L58470 26990
" />
<path d="M59070 27180
L58850 27180
" />
<path d="M58960 27180
L58960 26780
L58920 26840
L58880 26880
L58850 26900
" />
<path d="M59210 27330
L59230 27310
L59260 27260
L59280 27220
L59300 27160
L59320 27070
L59320 26990
L59300 26900
L59280 26840
L59260 26800
L59230 26740
L59210 26720
" />
<path d="M59520 27180
L59520 26780
L59670 26780
L59710 26800
L59720 26820
L59740 26860
L59740 26910
L59720 26950
L59710 26970
L59670 26990
L59520 26990
" />
<path d="M60050 26970
L60110 26990
L60120 27010
L60140 27050
L60140 27100
L60120 27140
L60110 27160
L60070 27180
L59920 27180
L59920 26780
L60050 26780
L60090 26800
L60110 26820
L60120 26860
L60120 26900
L60110 26930
L60090 26950
L60050 26970
L59920 26970
" />
<path d="M60390 26780
L60430 26780
L60470 26800
L60490 26820
L60510 26860
L60520 26930
L60520 27030
L60510 27100
L60490 27140
L60470 27160
L60430 27180
L60390 27180
L60350 27160
L60330 27140
L60320 27100
L60300 27030
L60300 26930
L60320 26860
L60330 26820
L60350 26800
L60390 26780
" />
<path d="M61670 26880
L61450 26880
" />
<path d="M61560 26880
L61560 26480
L61520 26540
L61480 26580
L61450 26600
" />
<path d="M62020 26610
L62020 26880
" />
<path d="M61920 26460
L61830 26750
L62070 26750
" />
<path d="M61000 36500
L62500 36500
" />
<path d="M55060 36830
L55040 36810
L55000 36760
L54980 36720
L54960 36660
L54950 36570
L54950 36490
L54960 36400
L54980 36340
L55000 36300
L55040 36240
L55060 36220
" />
<path d="M55220 36680
L55220 36280
L55370 36280
L55410 36300
L55420 36320
L55440 36360
L55440 36410
L55420 36450
L55410 36470
L55370 36490
L55220 36490
" />
<path d="M55840 36640
L55820 36660
L55770 36680
L55730 36680
L55670 36660
L55630 36620
L55620 36590
L55600 36510
L55600 36450
L55620 36380
L55630 36340
L55670 36300
L55730 36280
L55770 36280
L55820 36300
L55840 36320
" />
<path d="M56020 36680
L56020 36280
" />
<path d="M56210 36680
L56210 36280
L56430 36680
L56430 36280
" />
<path d="M56570 36280
L56800 36280
" />
<path d="M56680 36680
L56680 36280
" />
<path d="M56940 36680
L57020 36680
L57060 36660
L57080 36640
L57120 36590
L57130 36510
L57130 36360
L57120 36320
L57100 36300
L57060 36280
L56980 36280
L56940 36300
L56930 36320
L56910 36360
L56910 36450
L56930 36490
L56940 36510
L56980 36530
L57060 36530
L57100 36510
L57120 36490
L57130 36450
" />
<path d="M57590 36260
L57250 36780
" />
<path d="M57710 36570
L57900 36570
" />
<path d="M57670 36680
L57800 36280
L57930 36680
" />
<path d="M58070 36680
L58070 36280
L58160 36280
L58220 36300
L58260 36340
L58270 36380
L58290 36450
L58290 36510
L58270 36590
L58260 36620
L58220 36660
L58160 36680
L58070 36680
" />
<path d="M58690 36640
L58670 36660
L58620 36680
L58580 36680
L58520 36660
L58480 36620
L58470 36590
L58450 36510
L58450 36450
L58470 36380
L58480 36340
L58520 36300
L58580 36280
L58620 36280
L58670 36300
L58690 36320
" />
<path d="M59070 36680
L58850 36680
" />
<path d="M58960 36680
L58960 36280
L58920 36340
L58880 36380
L58850 36400
" />
<path d="M59210 36830
L59230 36810
L59260 36760
L59280 36720
L59300 36660
L59320 36570
L59320 36490
L59300 36400
L59280 36340
L59260 36300
L59230 36240
L59210 36220
" />
<path d="M59520 36680
L59520 36280
L59670 36280
L59710 36300
L59720 36320
L59740 36360
L59740 36410
L59720 36450
L59710 36470
L59670 36490
L59520 36490
" />
<path d="M60140 36640
L60120 36660
L60070 36680
L60030 36680
L59970 36660
L59930 36620
L59920 36590
L59900 36510
L59900 36450
L59920 36380
L59930 36340
L59970 36300
L60030 36280
L60070 36280
L60120 36300
L60140 36320
" />
<path d="M60520 36680
L60300 36680
" />
<path d="M60410 36680
L60410 36280
L60370 36340
L60330 36380
L60300 36400
" />
<path d="M61450 36020
L61470 36000
L61500 35980
L61600 35980
L61640 36000
L61660 36020
L61670 36060
L61670 36100
L61660 36150
L61430 36380
L61670 36380
" />
<path d="M62020 36110
L62020 36380
" />
<path d="M61920 35960
L61830 36250
L62070 36250
" />
<path d="M61000 28000
L62500 28000
" />
<path d="M55040 28330
L55020 28310
L54980 28260
L54960 28220
L54940 28160
L54930 28070
L54930 27990
L54940 27900
L54960 27840
L54980 27800
L55020 27740
L55040 27720
" />
<path d="M55200 28180
L55200 27780
L55350 27780
L55390 27800
L55400 27820
L55420 27860
L55420 27910
L55400 27950
L55390 27970
L55350 27990
L55200 27990
" />
<path d="M55820 28140
L55800 28160
L55750 28180
L55710 28180
L55650 28160
L55610 28120
L55600 28090
L55580 28010
L55580 27950
L55600 27880
L55610 27840
L55650 27800
L55710 27780
L55750 27780
L55800 27800
L55820 27820
" />
<path d="M56000 28180
L56000 27780
" />
<path d="M56190 28180
L56190 27780
L56410 28180
L56410 27780
" />
<path d="M56550 27780
L56780 27780
" />
<path d="M56660 28180
L56660 27780
" />
<path d="M57110 28180
L56890 28180
" />
<path d="M57000 28180
L57000 27780
L56960 27840
L56920 27880
L56890 27900
" />
<path d="M57570 27760
L57230 28280
" />
<path d="M57780 27780
L57860 27780
L57900 27800
L57930 27840
L57950 27910
L57950 28050
L57930 28120
L57900 28160
L57860 28180
L57780 28180
L57740 28160
L57710 28120
L57690 28050
L57690 27910
L57710 27840
L57740 27800
L57780 27780
" />
<path d="M58350 28140
L58330 28160
L58280 28180
L58240 28180
L58180 28160
L58140 28120
L58130 28090
L58110 28010
L58110 27950
L58130 27880
L58140 27840
L58180 27800
L58240 27780
L58280 27780
L58330 27800
L58350 27820
" />
<path d="M58730 28180
L58510 28180
" />
<path d="M58620 28180
L58620 27780
L58580 27840
L58540 27880
L58510 27900
" />
<path d="M58890 28070
L59080 28070
" />
<path d="M58850 28180
L58980 27780
L59110 28180
" />
<path d="M59210 28330
L59230 28310
L59260 28260
L59280 28220
L59300 28160
L59320 28070
L59320 27990
L59300 27900
L59280 27840
L59260 27800
L59230 27740
L59210 27720
" />
<path d="M59520 28180
L59520 27780
L59670 27780
L59710 27800
L59720 27820
L59740 27860
L59740 27910
L59720 27950
L59710 27970
L59670 27990
L59520 27990
" />
<path d="M60050 27970
L60110 27990
L60120 28010
L60140 28050
L60140 28100
L60120 28140
L60110 28160
L60070 28180
L59920 28180
L59920 27780
L60050 27780
L60090 27800
L60110 27820
L60120 27860
L60120 27900
L60110 27930
L60090 27950
L60050 27970
L59920 27970
" />
<path d="M60520 28180
L60300 28180
" />
<path d="M60410 28180
L60410 27780
L60370 27840
L60330 27880
L60300 27900
" />
<path d="M61670 27880
L61450 27880
" />
<path d="M61560 27880
L61560 27480
L61520 27540
L61480 27580
L61450 27600
" />
<path d="M62040 27480
L61850 27480
L61830 27670
L61850 27650
L61880 27630
L61980 27630
L62020 27650
L62040 27670
L62050 27710
L62050 27800
L62040 27840
L62020 27860
L61980 27880
L61880 27880
L61850 27860
L61830 27840
" />
<path d="M61000 37500
L62500 37500
" />
<path d="M54680 37830
L54660 37810
L54620 37760
L54600 37720
L54580 37660
L54570 37570
L54570 37490
L54580 37400
L54600 37340
L54620 37300
L54660 37240
L54680 37220
" />
<path d="M54840 37680
L54840 37280
L54990 37280
L55030 37300
L55040 37320
L55060 37360
L55060 37410
L55040 37450
L55030 37470
L54990 37490
L54840 37490
" />
<path d="M55460 37640
L55440 37660
L55390 37680
L55350 37680
L55290 37660
L55250 37620
L55240 37590
L55220 37510
L55220 37450
L55240 37380
L55250 37340
L55290 37300
L55350 37280
L55390 37280
L55440 37300
L55460 37320
" />
<path d="M55640 37680
L55640 37280
" />
<path d="M55830 37680
L55830 37280
L56050 37680
L56050 37280
" />
<path d="M56190 37280
L56420 37280
" />
<path d="M56300 37680
L56300 37280
" />
<path d="M56750 37680
L56530 37680
" />
<path d="M56640 37680
L56640 37280
L56600 37340
L56560 37380
L56530 37400
" />
<path d="M57000 37280
L57040 37280
L57080 37300
L57100 37320
L57120 37360
L57130 37430
L57130 37530
L57120 37600
L57100 37640
L57080 37660
L57040 37680
L57000 37680
L56960 37660
L56940 37640
L56930 37600
L56910 37530
L56910 37430
L56930 37360
L56940 37320
L56960 37300
L57000 37280
" />
<path d="M57590 37260
L57250 37780
" />
<path d="M57710 37570
L57900 37570
" />
<path d="M57670 37680
L57800 37280
L57930 37680
" />
<path d="M58070 37680
L58070 37280
L58160 37280
L58220 37300
L58260 37340
L58270 37380
L58290 37450
L58290 37510
L58270 37590
L58260 37620
L58220 37660
L58160 37680
L58070 37680
" />
<path d="M58690 37640
L58670 37660
L58620 37680
L58580 37680
L58520 37660
L58480 37620
L58470 37590
L58450 37510
L58450 37450
L58470 37380
L58480 37340
L58520 37300
L58580 37280
L58620 37280
L58670 37300
L58690 37320
" />
<path d="M58850 37320
L58870 37300
L58900 37280
L59000 37280
L59040 37300
L59060 37320
L59070 37360
L59070 37400
L59060 37450
L58830 37680
L59070 37680
" />
<path d="M59210 37830
L59230 37810
L59260 37760
L59280 37720
L59300 37660
L59320 37570
L59320 37490
L59300 37400
L59280 37340
L59260 37300
L59230 37240
L59210 37220
" />
<path d="M59520 37680
L59520 37280
L59670 37280
L59710 37300
L59720 37320
L59740 37360
L59740 37410
L59720 37450
L59710 37470
L59670 37490
L59520 37490
" />
<path d="M60140 37640
L60120 37660
L60070 37680
L60030 37680
L59970 37660
L59930 37620
L59920 37590
L59900 37510
L59900 37450
L59920 37380
L59930 37340
L59970 37300
L60030 37280
L60070 37280
L60120 37300
L60140 37320
" />
<path d="M60300 37320
L60320 37300
L60350 37280
L60450 37280
L60490 37300
L60510 37320
L60520 37360
L60520 37400
L60510 37450
L60280 37680
L60520 37680
" />
<path d="M61450 37020
L61470 37000
L61500 36980
L61600 36980
L61640 37000
L61660 37020
L61670 37060
L61670 37100
L61660 37150
L61430 37380
L61670 37380
" />
<path d="M62040 36980
L61850 36980
L61830 37170
L61850 37150
L61880 37130
L61980 37130
L62020 37150
L62040 37170
L62050 37210
L62050 37300
L62040 37340
L62020 37360
L61980 37380
L61880 37380
L61850 37360
L61830 37340
" />
<path d="M61000 29000
L62500 29000
" />
<path d="M53800 29330
L53780 29310
L53740 29260
L53720 29220
L53700 29160
L53690 29070
L53690 28990
L53700 28900
L53720 28840
L53740 28800
L53780 28740
L53800 28720
" />
<path d="M53960 29180
L53960 28780
L54110 28780
L54150 28800
L54160 28820
L54180 28860
L54180 28910
L54160 28950
L54150 28970
L54110 28990
L53960 28990
" />
<path d="M54580 29140
L54560 29160
L54510 29180
L54470 29180
L54410 29160
L54370 29120
L54360 29090
L54340 29010
L54340 28950
L54360 28880
L54370 28840
L54410 28800
L54470 28780
L54510 28780
L54560 28800
L54580 28820
" />
<path d="M54760 29180
L54760 28780
" />
<path d="M54950 29180
L54950 28780
L55170 29180
L55170 28780
" />
<path d="M55310 28780
L55540 28780
" />
<path d="M55420 29180
L55420 28780
" />
<path d="M55650 28820
L55670 28800
L55700 28780
L55800 28780
L55840 28800
L55860 28820
L55870 28860
L55870 28900
L55860 28950
L55630 29180
L55870 29180
" />
<path d="M56330 28760
L55990 29280
" />
<path d="M56540 28780
L56620 28780
L56660 28800
L56690 28840
L56710 28910
L56710 29050
L56690 29120
L56660 29160
L56620 29180
L56540 29180
L56500 29160
L56470 29120
L56450 29050
L56450 28910
L56470 28840
L56500 28800
L56540 28780
" />
<path d="M57110 29140
L57090 29160
L57040 29180
L57000 29180
L56940 29160
L56900 29120
L56890 29090
L56870 29010
L56870 28950
L56890 28880
L56900 28840
L56940 28800
L57000 28780
L57040 28780
L57090 28800
L57110 28820
" />
<path d="M57490 29180
L57270 29180
" />
<path d="M57380 29180
L57380 28780
L57340 28840
L57300 28880
L57270 28900
" />
<path d="M57800 28970
L57860 28990
L57870 29010
L57890 29050
L57890 29100
L57870 29140
L57860 29160
L57820 29180
L57670 29180
L57670 28780
L57800 28780
L57840 28800
L57860 28820
L57870 28860
L57870 28900
L57860 28930
L57840 28950
L57800 28970
L57670 28970
" />
<path d="M58350 28760
L58010 29280
" />
<path d="M58470 29160
L58520 29180
L58620 29180
L58660 29160
L58680 29140
L58690 29100
L58690 29070
L58680 29030
L58660 29010
L58620 28990
L58540 28970
L58500 28950
L58490 28930
L58470 28900
L58470 28860
L58490 28820
L58500 28800
L58540 28780
L58640 28780
L58690 28800
" />
<path d="M58850 29160
L58900 29180
L59000 29180
L59040 29160
L59060 29140
L59070 29100
L59070 29070
L59060 29030
L59040 29010
L59000 28990
L58920 28970
L58880 28950
L58870 28930
L58850 28900
L58850 28860
L58870 28820
L58880 28800
L58920 28780
L59020 28780
L59070 28800
" />
<path d="M58390 28710
L59150 28710
" />
<path d="M59210 29330
L59230 29310
L59260 29260
L59280 29220
L59300 29160
L59320 29070
L59320 28990
L59300 28900
L59280 28840
L59260 28800
L59230 28740
L59210 28720
" />
<path d="M59520 29180
L59520 28780
L59670 28780
L59710 28800
L59720 28820
L59740 28860
L59740 28910
L59720 28950
L59710 28970
L59670 28990
L59520 28990
" />
<path d="M60050 28970
L60110 28990
L60120 29010
L60140 29050
L60140 29100
L60120 29140
L60110 29160
L60070 29180
L59920 29180
L59920 28780
L60050 28780
L60090 28800
L60110 28820
L60120 28860
L60120 28900
L60110 28930
L60090 28950
L60050 28970
L59920 28970
" />
<path d="M60300 28820
L60320 28800
L60350 28780
L60450 28780
L60490 28800
L60510 28820
L60520 28860
L60520 28900
L60510 28950
L60280 29180
L60520 29180
" />
<path d="M61670 28880
L61450 28880
" />
<path d="M61560 28880
L61560 28480
L61520 28540
L61480 28580
L61450 28600
" />
<path d="M62020 28480
L61940 28480
L61900 28500
L61880 28520
L61850 28580
L61830 28650
L61830 28800
L61850 28840
L61860 28860
L61900 28880
L61980 28880
L62020 28860
L62040 28840
L62050 28800
L62050 28710
L62040 28670
L62020 28650
L61980 28630
L61900 28630
L61860 28650
L61850 28670
L61830 28710
" />
<path d="M61000 38500
L62500 38500
" />
<path d="M54680 38830
L54660 38810
L54620 38760
L54600 38720
L54580 38660
L54570 38570
L54570 38490
L54580 38400
L54600 38340
L54620 38300
L54660 38240
L54680 38220
" />
<path d="M54840 38680
L54840 38280
L54990 38280
L55030 38300
L55040 38320
L55060 38360
L55060 38410
L55040 38450
L55030 38470
L54990 38490
L54840 38490
" />
<path d="M55460 38640
L55440 38660
L55390 38680
L55350 38680
L55290 38660
L55250 38620
L55240 38590
L55220 38510
L55220 38450
L55240 38380
L55250 38340
L55290 38300
L55350 38280
L55390 38280
L55440 38300
L55460 38320
" />
<path d="M55640 38680
L55640 38280
" />
<path d="M55830 38680
L55830 38280
L56050 38680
L56050 38280
" />
<path d="M56190 38280
L56420 38280
" />
<path d="M56300 38680
L56300 38280
" />
<path d="M56750 38680
L56530 38680
" />
<path d="M56640 38680
L56640 38280
L56600 38340
L56560 38380
L56530 38400
" />
<path d="M57130 38680
L56910 38680
" />
<path d="M57020 38680
L57020 38280
L56980 38340
L56940 38380
L56910 38400
" />
<path d="M57590 38260
L57250 38780
" />
<path d="M57710 38570
L57900 38570
" />
<path d="M57670 38680
L57800 38280
L57930 38680
" />
<path d="M58070 38680
L58070 38280
L58160 38280
L58220 38300
L58260 38340
L58270 38380
L58290 38450
L58290 38510
L58270 38590
L58260 38620
L58220 38660
L58160 38680
L58070 38680
" />
<path d="M58690 38640
L58670 38660
L58620 38680
L58580 38680
L58520 38660
L58480 38620
L58470 38590
L58450 38510
L58450 38450
L58470 38380
L58480 38340
L58520 38300
L58580 38280
L58620 38280
L58670 38300
L58690 38320
" />
<path d="M58830 38280
L59070 38280
L58940 38430
L59000 38430
L59040 38450
L59060 38470
L59070 38510
L59070 38600
L59060 38640
L59040 38660
L59000 38680
L58880 38680
L58850 38660
L58830 38640
" />
<path d="M59210 38830
L59230 38810
L59260 38760
L59280 38720
L59300 38660
L59320 38570
L59320 38490
L59300 38400
L59280 38340
L59260 38300
L59230 38240
L59210 38220
" />
<path d="M59520 38680
L59520 38280
L59670 38280
L59710 38300
L59720 38320
L59740 38360
L59740 38410
L59720 38450
L59710 38470
L59670 38490
L59520 38490
" />
<path d="M60140 38640
L60120 38660
L60070 38680
L60030 38680
L59970 38660
L59930 38620
L59920 38590
L59900 38510
L59900 38450
L59920 38380
L59930 38340
L59970 38300
L60030 38280
L60070 38280
L60120 38300
L60140 38320
" />
<path d="M60280 38280
L60520 38280
L60390 38430
L60450 38430
L60490 38450
L60510 38470
L60520 38510
L60520 38600
L60510 38640
L60490 38660
L60450 38680
L60330 38680
L60300 38660
L60280 38640
" />
<path d="M61450 38020
L61470 38000
L61500 37980
L61600 37980
L61640 38000
L61660 38020
L61670 38060
L61670 38100
L61660 38150
L61430 38380
L61670 38380
" />
<path d="M62020 37980
L61940 37980
L61900 38000
L61880 38020
L61850 38080
L61830 38150
L61830 38300
L61850 38340
L61860 38360
L61900 38380
L61980 38380
L62020 38360
L62040 38340
L62050 38300
L62050 38210
L62040 38170
L62020 38150
L61980 38130
L61900 38130
L61860 38150
L61850 38170
L61830 38210
" />
<path d="M61000 30000
L62500 30000
" />
<path d="M53170 30330
L53150 30310
L53110 30260
L53090 30220
L53070 30160
L53060 30070
L53060 29990
L53070 29900
L53090 29840
L53110 29800
L53150 29740
L53170 29720
" />
<path d="M53330 30180
L53330 29780
L53480 29780
L53520 29800
L53530 29820
L53550 29860
L53550 29910
L53530 29950
L53520 29970
L53480 29990
L53330 29990
" />
<path d="M53950 30140
L53930 30160
L53880 30180
L53840 30180
L53780 30160
L53740 30120
L53730 30090
L53710 30010
L53710 29950
L53730 29880
L53740 29840
L53780 29800
L53840 29780
L53880 29780
L53930 29800
L53950 29820
" />
<path d="M54130 30180
L54130 29780
" />
<path d="M54320 30180
L54320 29780
L54540 30180
L54540 29780
" />
<path d="M54680 29780
L54910 29780
" />
<path d="M54790 30180
L54790 29780
" />
<path d="M55000 29780
L55240 29780
L55110 29930
L55170 29930
L55210 29950
L55230 29970
L55240 30010
L55240 30100
L55230 30140
L55210 30160
L55170 30180
L55050 30180
L55020 30160
L55000 30140
" />
<path d="M55700 29760
L55360 30280
" />
<path d="M55910 29780
L55990 29780
L56030 29800
L56060 29840
L56080 29910
L56080 30050
L56060 30120
L56030 30160
L55990 30180
L55910 30180
L55870 30160
L55840 30120
L55820 30050
L55820 29910
L55840 29840
L55870 29800
L55910 29780
" />
<path d="M56480 30140
L56460 30160
L56410 30180
L56370 30180
L56310 30160
L56270 30120
L56260 30090
L56240 30010
L56240 29950
L56260 29880
L56270 29840
L56310 29800
L56370 29780
L56410 29780
L56460 29800
L56480 29820
" />
<path d="M56640 29820
L56660 29800
L56690 29780
L56790 29780
L56830 29800
L56850 29820
L56860 29860
L56860 29900
L56850 29950
L56620 30180
L56860 30180
" />
<path d="M57020 30070
L57210 30070
" />
<path d="M56980 30180
L57110 29780
L57240 30180
" />
<path d="M57660 29760
L57320 30280
" />
<path d="M57800 30180
L57800 29780
L57930 30070
L58060 29780
L58060 30180
" />
<path d="M58330 29780
L58410 29780
L58450 29800
L58480 29840
L58500 29910
L58500 30050
L58480 30120
L58450 30160
L58410 30180
L58330 30180
L58290 30160
L58260 30120
L58240 30050
L58240 29910
L58260 29840
L58290 29800
L58330 29780
" />
<path d="M58660 30160
L58710 30180
L58810 30180
L58850 30160
L58870 30140
L58880 30100
L58880 30070
L58870 30030
L58850 30010
L58810 29990
L58730 29970
L58690 29950
L58680 29930
L58660 29900
L58660 29860
L58680 29820
L58690 29800
L58730 29780
L58830 29780
L58880 29800
" />
<path d="M59060 30180
L59060 29780
" />
<path d="M59210 30330
L59230 30310
L59260 30260
L59280 30220
L59300 30160
L59320 30070
L59320 29990
L59300 29900
L59280 29840
L59260 29800
L59230 29740
L59210 29720
" />
<path d="M59520 30180
L59520 29780
L59670 29780
L59710 29800
L59720 29820
L59740 29860
L59740 29910
L59720 29950
L59710 29970
L59670 29990
L59520 29990
" />
<path d="M60050 29970
L60110 29990
L60120 30010
L60140 30050
L60140 30100
L60120 30140
L60110 30160
L60070 30180
L59920 30180
L59920 29780
L60050 29780
L60090 29800
L60110 29820
L60120 29860
L60120 29900
L60110 29930
L60090 29950
L60050 29970
L59920 29970
" />
<path d="M60280 29780
L60520 29780
L60390 29930
L60450 29930
L60490 29950
L60510 29970
L60520 30010
L60520 30100
L60510 30140
L60490 30160
L60450 30180
L60330 30180
L60300 30160
L60280 30140
" />
<path d="M61670 29880
L61450 29880
" />
<path d="M61560 29880
L61560 29480
L61520 29540
L61480 29580
L61450 29600
" />
<path d="M61810 29480
L62070 29480
L61900 29880
" />
<path d="M61000 39500
L62500 39500
" />
<path d="M53140 39830
L53120 39810
L53080 39760
L53060 39720
L53040 39660
L53030 39570
L53030 39490
L53040 39400
L53060 39340
L53080 39300
L53120 39240
L53140 39220
" />
<path d="M53300 39680
L53300 39280
L53450 39280
L53490 39300
L53500 39320
L53520 39360
L53520 39410
L53500 39450
L53490 39470
L53450 39490
L53300 39490
" />
<path d="M53920 39640
L53900 39660
L53850 39680
L53810 39680
L53750 39660
L53710 39620
L53700 39590
L53680 39510
L53680 39450
L53700 39380
L53710 39340
L53750 39300
L53810 39280
L53850 39280
L53900 39300
L53920 39320
" />
<path d="M54100 39680
L54100 39280
" />
<path d="M54290 39680
L54290 39280
L54510 39680
L54510 39280
" />
<path d="M54650 39280
L54880 39280
" />
<path d="M54760 39680
L54760 39280
" />
<path d="M55210 39680
L54990 39680
" />
<path d="M55100 39680
L55100 39280
L55060 39340
L55020 39380
L54990 39400
" />
<path d="M55370 39320
L55390 39300
L55420 39280
L55520 39280
L55560 39300
L55580 39320
L55590 39360
L55590 39400
L55580 39450
L55350 39680
L55590 39680
" />
<path d="M56050 39260
L55710 39780
" />
<path d="M56170 39660
L56220 39680
L56320 39680
L56360 39660
L56380 39640
L56390 39600
L56390 39570
L56380 39530
L56360 39510
L56320 39490
L56240 39470
L56200 39450
L56190 39430
L56170 39400
L56170 39360
L56190 39320
L56200 39300
L56240 39280
L56340 39280
L56390 39300
" />
<path d="M56570 39680
L56570 39280
L56660 39280
L56720 39300
L56760 39340
L56770 39380
L56790 39450
L56790 39510
L56770 39590
L56760 39620
L56720 39660
L56660 39680
L56570 39680
" />
<path d="M56950 39570
L57140 39570
" />
<path d="M56910 39680
L57040 39280
L57170 39680
" />
<path d="M57590 39260
L57250 39780
" />
<path d="M57710 39570
L57900 39570
" />
<path d="M57670 39680
L57800 39280
L57930 39680
" />
<path d="M58070 39680
L58070 39280
L58160 39280
L58220 39300
L58260 39340
L58270 39380
L58290 39450
L58290 39510
L58270 39590
L58260 39620
L58220 39660
L58160 39680
L58070 39680
" />
<path d="M58690 39640
L58670 39660
L58620 39680
L58580 39680
L58520 39660
L58480 39620
L58470 39590
L58450 39510
L58450 39450
L58470 39380
L58480 39340
L58520 39300
L58580 39280
L58620 39280
L58670 39300
L58690 39320
" />
<path d="M59040 39410
L59040 39680
" />
<path d="M58940 39260
L58850 39550
L59090 39550
" />
<path d="M59210 39830
L59230 39810
L59260 39760
L59280 39720
L59300 39660
L59320 39570
L59320 39490
L59300 39400
L59280 39340
L59260 39300
L59230 39240
L59210 39220
" />
<path d="M59520 39680
L59520 39280
L59670 39280
L59710 39300
L59720 39320
L59740 39360
L59740 39410
L59720 39450
L59710 39470
L59670 39490
L59520 39490
" />
<path d="M60140 39640
L60120 39660
L60070 39680
L60030 39680
L59970 39660
L59930 39620
L59920 39590
L59900 39510
L59900 39450
L59920 39380
L59930 39340
L59970 39300
L60030 39280
L60070 39280
L60120 39300
L60140 39320
" />
<path d="M60490 39410
L60490 39680
" />
<path d="M60390 39260
L60300 39550
L60540 39550
" />
<path d="M61450 39020
L61470 39000
L61500 38980
L61600 38980
L61640 39000
L61660 39020
L61670 39060
L61670 39100
L61660 39150
L61430 39380
L61670 39380
" />
<path d="M61810 38980
L62070 38980
L61900 39380
" />
<path d="M61000 31000
L62500 31000
" />
<path d="M55130 31330
L55110 31310
L55070 31260
L55050 31220
L55030 31160
L55020 31070
L55020 30990
L55030 30900
L55050 30840
L55070 30800
L55110 30740
L55130 30720
" />
<path d="M55290 31180
L55290 30780
L55440 30780
L55480 30800
L55490 30820
L55510 30860
L55510 30910
L55490 30950
L55480 30970
L55440 30990
L55290 30990
" />
<path d="M55910 31140
L55890 31160
L55840 31180
L55800 31180
L55740 31160
L55700 31120
L55690 31090
L55670 31010
L55670 30950
L55690 30880
L55700 30840
L55740 30800
L55800 30780
L55840 30780
L55890 30800
L55910 30820
" />
<path d="M56090 31180
L56090 30780
" />
<path d="M56280 31180
L56280 30780
L56500 31180
L56500 30780
" />
<path d="M56640 30780
L56870 30780
" />
<path d="M56750 31180
L56750 30780
" />
<path d="M57170 30910
L57170 31180
" />
<path d="M57070 30760
L56980 31050
L57220 31050
" />
<path d="M57660 30760
L57320 31280
" />
<path d="M57800 31180
L57800 30780
L57930 31070
L58060 30780
L58060 31180
" />
<path d="M58260 31180
L58260 30780
" />
<path d="M58430 31160
L58480 31180
L58580 31180
L58620 31160
L58640 31140
L58650 31100
L58650 31070
L58640 31030
L58620 31010
L58580 30990
L58500 30970
L58460 30950
L58450 30930
L58430 30900
L58430 30860
L58450 30820
L58460 30800
L58500 30780
L58600 30780
L58650 30800
" />
<path d="M58900 30780
L58980 30780
L59020 30800
L59050 30840
L59070 30910
L59070 31050
L59050 31120
L59020 31160
L58980 31180
L58900 31180
L58860 31160
L58830 31120
L58810 31050
L58810 30910
L58830 30840
L58860 30800
L58900 30780
" />
<path d="M59210 31330
L59230 31310
L59260 31260
L59280 31220
L59300 31160
L59320 31070
L59320 30990
L59300 30900
L59280 30840
L59260 30800
L59230 30740
L59210 30720
" />
<path d="M59520 31180
L59520 30780
L59670 30780
L59710 30800
L59720 30820
L59740 30860
L59740 30910
L59720 30950
L59710 30970
L59670 30990
L59520 30990
" />
<path d="M60050 30970
L60110 30990
L60120 31010
L60140 31050
L60140 31100
L60120 31140
L60110 31160
L60070 31180
L59920 31180
L59920 30780
L60050 30780
L60090 30800
L60110 30820
L60120 30860
L60120 30900
L60110 30930
L60090 30950
L60050 30970
L59920 30970
" />
<path d="M60490 30910
L60490 31180
" />
<path d="M60390 30760
L60300 31050
L60540 31050
" />
<path d="M61670 30880
L61450 30880
" />
<path d="M61560 30880
L61560 30480
L61520 30540
L61480 30580
L61450 30600
" />
<path d="M61900 30650
L61860 30630
L61850 30610
L61830 30580
L61830 30560
L61850 30520
L61860 30500
L61900 30480
L61980 30480
L62020 30500
L62040 30520
L62050 30560
L62050 30580
L62040 30610
L62020 30630
L61980 30650
L61900 30650
L61860 30670
L61850 30690
L61830 30730
L61830 30800
L61850 30840
L61860 30860
L61900 30880
L61980 30880
L62020 30860
L62040 30840
L62050 30800
L62050 30730
L62040 30690
L62020 30670
L61980 30650
" />
<path d="M61000 40500
L62500 40500
" />
<path d="M53160 40830
L53140 40810
L53100 40760
L53080 40720
L53060 40660
L53050 40570
L53050 40490
L53060 40400
L53080 40340
L53100 40300
L53140 40240
L53160 40220
" />
<path d="M53320 40680
L53320 40280
L53470 40280
L53510 40300
L53520 40320
L53540 40360
L53540 40410
L53520 40450
L53510 40470
L53470 40490
L53320 40490
" />
<path d="M53940 40640
L53920 40660
L53870 40680
L53830 40680
L53770 40660
L53730 40620
L53720 40590
L53700 40510
L53700 40450
L53720 40380
L53730 40340
L53770 40300
L53830 40280
L53870 40280
L53920 40300
L53940 40320
" />
<path d="M54120 40680
L54120 40280
" />
<path d="M54310 40680
L54310 40280
L54530 40680
L54530 40280
" />
<path d="M54670 40280
L54900 40280
" />
<path d="M54780 40680
L54780 40280
" />
<path d="M55230 40680
L55010 40680
" />
<path d="M55120 40680
L55120 40280
L55080 40340
L55040 40380
L55010 40400
" />
<path d="M55370 40280
L55610 40280
L55480 40430
L55540 40430
L55580 40450
L55600 40470
L55610 40510
L55610 40600
L55600 40640
L55580 40660
L55540 40680
L55420 40680
L55390 40660
L55370 40640
" />
<path d="M56070 40260
L55730 40780
" />
<path d="M56190 40660
L56240 40680
L56340 40680
L56380 40660
L56400 40640
L56410 40600
L56410 40570
L56400 40530
L56380 40510
L56340 40490
L56260 40470
L56220 40450
L56210 40430
L56190 40400
L56190 40360
L56210 40320
L56220 40300
L56260 40280
L56360 40280
L56410 40300
" />
<path d="M56810 40640
L56790 40660
L56740 40680
L56700 40680
L56640 40660
L56600 40620
L56590 40590
L56570 40510
L56570 40450
L56590 40380
L56600 40340
L56640 40300
L56700 40280
L56740 40280
L56790 40300
L56810 40320
" />
<path d="M57180 40680
L56990 40680
L56990 40280
" />
<path d="M57590 40260
L57250 40780
" />
<path d="M57710 40570
L57900 40570
" />
<path d="M57670 40680
L57800 40280
L57930 40680
" />
<path d="M58070 40680
L58070 40280
L58160 40280
L58220 40300
L58260 40340
L58270 40380
L58290 40450
L58290 40510
L58270 40590
L58260 40620
L58220 40660
L58160 40680
L58070 40680
" />
<path d="M58690 40640
L58670 40660
L58620 40680
L58580 40680
L58520 40660
L58480 40620
L58470 40590
L58450 40510
L58450 40450
L58470 40380
L58480 40340
L58520 40300
L58580 40280
L58620 40280
L58670 40300
L58690 40320
" />
<path d="M59060 40280
L58870 40280
L58850 40470
L58870 40450
L58900 40430
L59000 40430
L59040 40450
L59060 40470
L59070 40510
L59070 40600
L59060 40640
L59040 40660
L59000 40680
L58900 40680
L58870 40660
L58850 40640
" />
<path d="M59210 40830
L59230 40810
L59260 40760
L59280 40720
L59300 40660
L59320 40570
L59320 40490
L59300 40400
L59280 40340
L59260 40300
L59230 40240
L59210 40220
" />
<path d="M59520 40680
L59520 40280
L59670 40280
L59710 40300
L59720 40320
L59740 40360
L59740 40410
L59720 40450
L59710 40470
L59670 40490
L59520 40490
" />
<path d="M60140 40640
L60120 40660
L60070 40680
L60030 40680
L59970 40660
L59930 40620
L59920 40590
L59900 40510
L59900 40450
L59920 40380
L59930 40340
L59970 40300
L60030 40280
L60070 40280
L60120 40300
L60140 40320
" />
<path d="M60510 40280
L60320 40280
L60300 40470
L60320 40450
L60350 40430
L60450 40430
L60490 40450
L60510 40470
L60520 40510
L60520 40600
L60510 40640
L60490 40660
L60450 40680
L60350 40680
L60320 40660
L60300 40640
" />
<path d="M61450 40020
L61470 40000
L61500 39980
L61600 39980
L61640 40000
L61660 40020
L61670 40060
L61670 40100
L61660 40150
L61430 40380
L61670 40380
" />
<path d="M61900 40150
L61860 40130
L61850 40110
L61830 40080
L61830 40060
L61850 40020
L61860 40000
L61900 39980
L61980 39980
L62020 40000
L62040 40020
L62050 40060
L62050 40080
L62040 40110
L62020 40130
L61980 40150
L61900 40150
L61860 40170
L61850 40190
L61830 40230
L61830 40300
L61850 40340
L61860 40360
L61900 40380
L61980 40380
L62020 40360
L62040 40340
L62050 40300
L62050 40230
L62040 40190
L62020 40170
L61980 40150
" />
<path d="M61000 32000
L62500 32000
" />
<path d="M55400 32330
L55380 32310
L55340 32260
L55320 32220
L55300 32160
L55290 32070
L55290 31990
L55300 31900
L55320 31840
L55340 31800
L55380 31740
L55400 31720
" />
<path d="M55560 32180
L55560 31780
L55710 31780
L55750 31800
L55760 31820
L55780 31860
L55780 31910
L55760 31950
L55750 31970
L55710 31990
L55560 31990
" />
<path d="M56180 32140
L56160 32160
L56110 32180
L56070 32180
L56010 32160
L55970 32120
L55960 32090
L55940 32010
L55940 31950
L55960 31880
L55970 31840
L56010 31800
L56070 31780
L56110 31780
L56160 31800
L56180 31820
" />
<path d="M56360 32180
L56360 31780
" />
<path d="M56550 32180
L56550 31780
L56770 32180
L56770 31780
" />
<path d="M56910 31780
L57140 31780
" />
<path d="M57020 32180
L57020 31780
" />
<path d="M57460 31780
L57270 31780
L57250 31970
L57270 31950
L57300 31930
L57400 31930
L57440 31950
L57460 31970
L57470 32010
L57470 32100
L57460 32140
L57440 32160
L57400 32180
L57300 32180
L57270 32160
L57250 32140
" />
<path d="M57930 31760
L57590 32280
" />
<path d="M58050 32160
L58100 32180
L58200 32180
L58240 32160
L58260 32140
L58270 32100
L58270 32070
L58260 32030
L58240 32010
L58200 31990
L58120 31970
L58080 31950
L58070 31930
L58050 31900
L58050 31860
L58070 31820
L58080 31800
L58120 31780
L58220 31780
L58270 31800
" />
<path d="M58670 32140
L58650 32160
L58600 32180
L58560 32180
L58500 32160
L58460 32120
L58450 32090
L58430 32010
L58430 31950
L58450 31880
L58460 31840
L58500 31800
L58560 31780
L58600 31780
L58650 31800
L58670 31820
" />
<path d="M58850 32180
L58850 31780
" />
<path d="M59070 32180
L58900 31950
" />
<path d="M59070 31780
L58850 32010
" />
<path d="M59210 32330
L59230 32310
L59260 32260
L59280 32220
L59300 32160
L59320 32070
L59320 31990
L59300 31900
L59280 31840
L59260 31800
L59230 31740
L59210 31720
" />
<path d="M59520 32180
L59520 31780
L59670 31780
L59710 31800
L59720 31820
L59740 31860
L59740 31910
L59720 31950
L59710 31970
L59670 31990
L59520 31990
" />
<path d="M60050 31970
L60110 31990
L60120 32010
L60140 32050
L60140 32100
L60120 32140
L60110 32160
L60070 32180
L59920 32180
L59920 31780
L60050 31780
L60090 31800
L60110 31820
L60120 31860
L60120 31900
L60110 31930
L60090 31950
L60050 31970
L59920 31970
" />
<path d="M60510 31780
L60320 31780
L60300 31970
L60320 31950
L60350 31930
L60450 31930
L60490 31950
L60510 31970
L60520 32010
L60520 32100
L60510 32140
L60490 32160
L60450 32180
L60350 32180
L60320 32160
L60300 32140
" />
<path d="M61670 31880
L61450 31880
" />
<path d="M61560 31880
L61560 31480
L61520 31540
L61480 31580
L61450 31600
" />
<path d="M61860 31880
L61940 31880
L61980 31860
L62000 31840
L62040 31790
L62050 31710
L62050 31560
L62040 31520
L62020 31500
L61980 31480
L61900 31480
L61860 31500
L61850 31520
L61830 31560
L61830 31650
L61850 31690
L61860 31710
L61900 31730
L61980 31730
L62020 31710
L62040 31690
L62050 31650
" />
<path d="M45120 25420
L45120 24920
" />
<path d="M45640 25370
L45620 25390
L45550 25420
L45500 25420
L45430 25390
L45380 25340
L45360 25300
L45340 25200
L45340 25130
L45360 25040
L45380 24990
L45430 24940
L45500 24920
L45550 24920
L45620 24940
L45640 24960
" />
<path d="M46120 25420
L45840 25420
" />
<path d="M45980 25420
L45980 24920
L45930 24990
L45880 25040
L45840 25060
" />
<path d="M56600 51770
L56830 51770
" />
<path d="M56550 51920
L56710 51420
L56880 51920
" />
<path d="M56980 51420
L57260 51420
" />
<path d="M57120 51920
L57120 51420
" />
<path d="M57430 51920
L57430 51420
L57600 51770
L57760 51420
L57760 51920
" />
<path d="M58000 51650
L58170 51650
" />
<path d="M58240 51920
L58000 51920
L58000 51420
L58240 51420
" />
<path d="M58710 51440
L58660 51420
L58590 51420
L58520 51440
L58470 51490
L58450 51540
L58430 51630
L58430 51700
L58450 51800
L58470 51840
L58520 51890
L58590 51920
L58640 51920
L58710 51890
L58730 51870
L58730 51700
L58640 51700
" />
<path d="M58930 51770
L59160 51770
" />
<path d="M58880 51920
L59040 51420
L59210 51920
" />
<path d="M59330 51420
L59640 51420
L59470 51610
L59550 51610
L59590 51630
L59620 51650
L59640 51700
L59640 51820
L59620 51870
L59590 51890
L59550 51920
L59400 51920
L59360 51890
L59330 51870
" />
<path d="M59840 51460
L59860 51440
L59910 51420
L60030 51420
L60070 51440
L60100 51460
L60120 51510
L60120 51560
L60100 51630
L59810 51920
L60120 51920
" />
<path d="M60410 51630
L60360 51610
L60340 51580
L60320 51540
L60320 51510
L60340 51460
L60360 51440
L60410 51420
L60510 51420
L60550 51440
L60580 51460
L60600 51510
L60600 51540
L60580 51580
L60550 51610
L60510 51630
L60410 51630
L60360 51650
L60340 51680
L60320 51730
L60320 51820
L60340 51870
L60360 51890
L60410 51920
L60510 51920
L60550 51890
L60580 51870
L60600 51820
L60600 51730
L60580 51680
L60550 51650
L60510 51630
" />
<path d="M60820 51730
L61200 51730
" />
<path d="M61440 51920
L61440 51420
L61630 51420
L61680 51440
L61700 51460
L61720 51510
L61720 51580
L61700 51630
L61680 51650
L61630 51680
L61440 51680
" />
<path d="M51540 38200
L51610 37700
L51730 37700
L51790 37720
L51840 37770
L51850 37820
L51860 37910
L51850 37980
L51820 38080
L51790 38120
L51740 38170
L51660 38200
L51540 38200
" />
<path d="M52040 38200
L52110 37700
" />
<path d="M52520 38200
L52280 38200
L52350 37700
" />
<path d="M52720 37740
L52740 37720
L52800 37700
L52920 37700
L52950 37720
L52980 37740
L52990 37790
L52990 37840
L52960 37910
L52630 38200
L52940 38200
" />
<path d="M53270 37910
L53220 37890
L53210 37860
L53190 37820
L53190 37790
L53220 37740
L53240 37720
L53300 37700
L53400 37700
L53430 37720
L53460 37740
L53470 37790
L53470 37820
L53450 37860
L53410 37890
L53370 37910
L53270 37910
L53220 37930
L53190 37960
L53170 38010
L53160 38100
L53170 38150
L53190 38170
L53230 38200
L53330 38200
L53380 38170
L53410 38150
L53440 38100
L53450 38010
L53430 37960
L53410 37930
L53370 37910
" />
<path d="M32140 19670
L32340 20270
L32540 19670
" />
<path d="M33080 20210
L33050 20240
L32960 20270
L32900 20270
L32820 20240
L32760 20190
L32730 20130
L32700 20010
L32700 19930
L32730 19810
L32760 19760
L32820 19700
L32900 19670
L32960 19670
L33050 19700
L33080 19730
" />
<path d="M33680 20210
L33650 20240
L33560 20270
L33500 20270
L33420 20240
L33360 20190
L33330 20130
L33300 20010
L33300 19930
L33330 19810
L33360 19760
L33420 19700
L33500 19670
L33560 19670
L33650 19700
L33680 19730
" />
<path d="M33790 20330
L34250 20330
" />
<path d="M34740 20270
L34540 19990
" />
<path d="M34390 20270
L34390 19670
L34620 19670
L34680 19700
L34710 19730
L34740 19790
L34740 19870
L34710 19930
L34680 19960
L34620 19990
L34390 19990
" />
<path d="M34960 20100
L35250 20100
" />
<path d="M34910 20270
L35110 19670
L35310 20270
" />
<path d="M35500 20270
L35500 19670
" />
<path d="M36080 20270
L35790 20270
L35790 19670
" />
</g>
<g style="fill:#000000; fill-opacity:0.0; 
stroke:#000000; stroke-width:100; stroke-opacity:1; 
stroke-linecap:round; stroke-linejoin:round;">
<polyline fill="none;"
points="36500,20000
36200,19460
31850,19460
31850,20000
31850,20540
36200,20540
36500,20000
" /> 
</g>
<g style="fill:#000000; fill-opacity:0.0; 
stroke:#000000; stroke-width:60; stroke-opacity:1; 
stroke-linecap:round; stroke-linejoin:round;">
<path d="M33420 54700
L33360 54670
L33270 54670
L33190 54700
L33130 54760
L33100 54810
L33070 54930
L33070 55010
L33100 55130
L33130 55190
L33190 55240
L33270 55270
L33330 55270
L33420 55240
L33450 55210
L33450 55010
L33330 55010
" />
<path d="M33700 55270
L33700 54670
L34050 55270
L34050 54670
" />
<path d="M34330 55270
L34330 54670
L34480 54670
L34560 54700
L34620 54760
L34650 54810
L34680 54930
L34680 55010
L34650 55130
L34620 55190
L34560 55240
L34480 55270
L34330 55270
" />
<path d="M34790 55330
L35250 55330
" />
<path d="M35740 55270
L35540 54990
" />
<path d="M35390 55270
L35390 54670
L35620 54670
L35680 54700
L35710 54730
L35740 54790
L35740 54870
L35710 54930
L35680 54960
L35620 54990
L35390 54990
" />
<path d="M35960 55100
L36250 55100
" />
<path d="M35910 55270
L36110 54670
L36310 55270
" />
<path d="M36500 55270
L36500 54670
" />
<path d="M37080 55270
L36790 55270
L36790 54670
" />
</g>
<g style="fill:#000000; fill-opacity:0.0; 
stroke:#000000; stroke-width:100; stroke-opacity:1; 
stroke-linecap:round; stroke-linejoin:round;">
<polyline fill="none;"
points="37500,55000
37200,54460
32730,54460
32730,55000
32730,55540
37200,55540
37500,55000
" /> 
</g>
<g style="fill:#000000; fill-opacity:0.0; 
stroke:#000000; stroke-width:0; stroke-opacity:1; 
stroke-linecap:round; stroke-linejoin:round;">
</g>
<g style="fill:#000000; fill-opacity:0.0; 
stroke:#000000; stroke-width:200; stroke-opacity:1; 
stroke-linecap:round; stroke-linejoin:round;">
<polyline fill="none;"
points="39200,45800
40800,45800
" /> 
<polyline fill="none;"
points="39200,45200
40800,45200
" /> 
</g>
<g style="fill:#000000; fill-opacity:0.0; 
stroke:#000000; stroke-width:60; stroke-opacity:1; 
stroke-linecap:round; stroke-linejoin:round;">
<path d="M40000 45100
L40000 44000
" />
<path d="M40000 45900
L40000 47000
" />
<path d="M40650 44650
L40630 44670
L40560 44700
L40510 44700
L40440 44670
L40390 44620
L40370 44580
L40350 44480
L40350 44410
L40370 44320
L40390 44270
L40440 44220
L40510 44200
L40560 44200
L40630 44220
L40650 44240
" />
<path d="M40940 44650
L40960 44670
L40940 44700
L40920 44670
L40940 44650
L40940 44700
" />
<path d="M40850 44220
L40890 44200
L41010 44200
L41060 44220
L41080 44270
L41080 44320
L41060 44360
L41040 44390
L40990 44410
L40960 44430
L40940 44480
L40940 44510
" />
<path d="M40630 46700
L40350 46700
" />
<path d="M40490 46700
L40490 46200
L40440 46270
L40390 46320
L40350 46340
" />
<path d="M40940 46200
L40990 46200
L41040 46220
L41060 46240
L41090 46290
L41110 46390
L41110 46510
L41090 46600
L41060 46650
L41040 46670
L40990 46700
L40940 46700
L40900 46670
L40870 46650
L40850 46600
L40830 46510
L40830 46390
L40850 46290
L40870 46240
L40900 46220
L40940 46200
" />
<path d="M41420 46200
L41470 46200
L41520 46220
L41540 46240
L41570 46290
L41590 46390
L41590 46510
L41570 46600
L41540 46650
L41520 46670
L41470 46700
L41420 46700
L41380 46670
L41350 46650
L41330 46600
L41310 46510
L41310 46390
L41330 46290
L41350 46240
L41380 46220
L41420 46200
" />
<path d="M41810 46360
L41810 46700
" />
<path d="M41810 46410
L41830 46390
L41880 46360
L41950 46360
L42000 46390
L42020 46430
L42020 46700
" />
<path d="M42430 46430
L42260 46430
" />
<path d="M42260 46700
L42260 46200
L42500 46200
" />
</g>
<g style="fill:#000000; fill-opacity:0.0; 
stroke:#000000; stroke-width:0; stroke-opacity:1; 
stroke-linecap:round; stroke-linejoin:round;">
</g>
<g style="fill:#000000; fill-opacity:0.0; 
stroke:#000000; stroke-width:60; stroke-opacity:1; 
stroke-linecap:round; stroke-linejoin:round;">
<path d="M40009.6 26499.9 A500 500 0.0 0 0 40009.6 25500.1 " />
<path d="M40009.8 25499.9 A510 510 0.0 0 0 40009.8 24480.1 " />
<path d="M40009.8 24499.9 A510 510 0.0 0 0 40009.8 23480.1 " />
<path d="M40009.2 23499.9 A480 480 0.0 0 0 40009.2 22540.1 " />
<path d="M40000 22500
L40000 21500
" />
<path d="M40000 26500
L40000 27500
" />
<path d="M39700 24540
L39700 24780
L39200 24780
" />
<path d="M39650 24310
L39670 24290
L39700 24310
L39670 24330
L39650 24310
L39700 24310
" />
<path d="M39220 24400
L39200 24360
L39200 24240
L39220 24190
L39270 24170
L39320 24170
L39360 24190
L39390 24210
L39410 24260
L39430 24290
L39480 24310
L39510 24310
" />
<path d="M41200 25310
L41200 25590
" />
<path d="M41200 25450
L40700 25450
L40770 25500
L40820 25550
L40840 25590
" />
<path d="M40700 25000
L40700 24950
L40720 24900
L40740 24880
L40790 24850
L40890 24830
L41010 24830
L41100 24850
L41150 24880
L41170 24900
L41200 24950
L41200 25000
L41170 25040
L41150 25070
L41100 25090
L41010 25110
L40890 25110
L40790 25090
L40740 25070
L40720 25040
L40700 25000
" />
<path d="M40700 24520
L40700 24470
L40720 24420
L40740 24400
L40790 24370
L40890 24350
L41010 24350
L41100 24370
L41150 24400
L41170 24420
L41200 24470
L41200 24520
L41170 24560
L41150 24590
L41100 24610
L41010 24630
L40890 24630
L40790 24610
L40740 24590
L40720 24560
L40700 24520
" />
<path d="M40860 23920
L41200 23920
" />
<path d="M40860 24130
L41120 24130
L41170 24110
L41200 24060
L41200 23990
L41170 23940
L41150 23920
" />
<path d="M41200 23680
L40700 23680
" />
<path d="M40930 23680
L40930 23400
" />
<path d="M41200 23400
L40700 23400
" />
<path d="M40000 47000
L40000 55000
" />
</g>
<g style="fill:#000000; fill-opacity:0.0; 
stroke:#000000; stroke-width:0; stroke-opacity:1; 
stroke-linecap:round; stroke-linejoin:round;">
</g>
<g style="fill:#000000; fill-opacity:1.0; 
stroke:#000000; stroke-width:100; stroke-opacity:1; 
stroke-linecap:round; stroke-linejoin:round;">
<circle cx="40000" cy="55000" r="200" /> 
</g>
<g style="fill:#000000; fill-opacity:1.0; 
stroke:#000000; stroke-width:60; stroke-opacity:1; 
stroke-linecap:round; stroke-linejoin:round;">
</g>
<g style="fill:#000000; fill-opacity:0.0; 
stroke:#000000; stroke-width:60; stroke-opacity:1; 
stroke-linecap:round; stroke-linejoin:round;">
<path d="M40000 27500
L40000 44000
" />
<path d="M40000 21500
L40000 20000
" />
</g>
<g style="fill:#000000; fill-opacity:0.0; 
stroke:#000000; stroke-width:0; stroke-opacity:1; 
stroke-linecap:round; stroke-linejoin:round;">
</g>
<g style="fill:#000000; fill-opacity:1.0; 
stroke:#000000; stroke-width:100; stroke-opacity:1; 
stroke-linecap:round; stroke-linejoin:round;">
<circle cx="40000" cy="20000" r="200" /> 
</g>
<g style="fill:#000000; fill-opacity:1.0; 
stroke:#000000; stroke-width:60; stroke-opacity:1; 
stroke-linecap:round; stroke-linejoin:round;">
</g>
<g style="fill:#000000; fill-opacity:0.0; 
stroke:#000000; stroke-width:60; stroke-opacity:1; 
stroke-linecap:round; stroke-linejoin:round;">
<path d="M43500 30000
L40000 30000
" />
</g>
<g style="fill:#000000; fill-opacity:0.0; 
stroke:#000000; stroke-width:0; stroke-opacity:1; 
stroke-linecap:round; stroke-linejoin:round;">
</g>
<g style="fill:#000000; fill-opacity:1.0; 
stroke:#000000; stroke-width:100; stroke-opacity:1; 
stroke-linecap:round; stroke-linejoin:round;">
<circle cx="40000" cy="30000" r="200" /> 
</g>
<g style="fill:#000000; fill-opacity:1.0; 
stroke:#000000; stroke-width:60; stroke-opacity:1; 
stroke-linecap:round; stroke-linejoin:round;">
</g>
<g style="fill:#000000; fill-opacity:0.0; 
stroke:#000000; stroke-width:60; stroke-opacity:1; 
stroke-linecap:round; stroke-linejoin:round;">
<path d="M40000 20000
L36500 20000
" />
<path d="M40000 55000
L37500 55000
" />
</g> 
</svg>
